<?xml version="1.0" standalone="no"?>
<!DOCTYPE svg PUBLIC "-//W3C//DTD SVG 20010904//EN"
 "http://www.w3.org/TR/2001/REC-SVG-20010904/DTD/svg10.dtd">
<svg version="1.0" xmlns="http://www.w3.org/2000/svg"
 width="1024.000000pt" height="1024.000000pt" viewBox="0 0 1024.000000 1024.000000"
 preserveAspectRatio="xMidYMid meet">
<metadata>
Created by potrace 1.14, written by Peter Selinger 2001-2017
</metadata>
<g transform="translate(0.000000,1024.000000) scale(0.100000,-0.100000)"
fill="#000000" stroke="none">
<path d="M5085 10221 c-16 -10 -86 -50 -155 -89 -69 -39 -130 -76 -137 -82 -7
-5 -19 -10 -27 -10 -8 0 -16 -4 -18 -8 -1 -4 -30 -23 -63 -41 -33 -19 -80 -45
-105 -59 -25 -14 -76 -44 -115 -67 -38 -22 -77 -44 -85 -48 -8 -4 -37 -21 -65
-37 -27 -17 -58 -33 -67 -36 -10 -4 -18 -10 -18 -15 0 -5 -9 -9 -20 -9 -11 0
-20 -4 -20 -9 0 -5 -12 -14 -27 -20 -16 -6 -41 -20 -58 -31 -16 -11 -37 -23
-45 -27 -8 -4 -64 -35 -124 -70 -60 -35 -110 -63 -112 -63 -2 0 -28 -16 -59
-35 -30 -20 -55 -32 -55 -28 0 4 -4 4 -8 -2 -4 -5 -18 -16 -31 -23 -13 -8 -39
-22 -57 -33 -19 -10 -49 -28 -68 -38 -18 -11 -44 -25 -57 -33 -13 -7 -26 -15
-29 -18 -3 -3 -23 -14 -45 -26 -100 -53 -160 -88 -163 -96 -2 -4 -12 -8 -22
-8 -10 0 -20 -3 -22 -8 -1 -4 -66 -43 -143 -87 -77 -44 -149 -85 -160 -92 -11
-7 -27 -15 -35 -19 -8 -4 -48 -27 -88 -51 -41 -24 -76 -43 -78 -43 -3 0 -29
-15 -59 -34 -29 -19 -56 -32 -59 -29 -3 4 -6 2 -6 -4 0 -6 -8 -13 -17 -16 -10
-4 -40 -20 -68 -37 -27 -17 -59 -35 -70 -40 -11 -6 -47 -26 -80 -46 -33 -19
-68 -38 -77 -41 -10 -3 -18 -9 -18 -14 0 -5 -4 -9 -9 -9 -5 0 -75 -38 -156
-85 -81 -47 -151 -85 -156 -85 -5 0 -9 -4 -9 -10 0 -5 -5 -10 -10 -10 -6 0
-90 -46 -188 -102 -97 -55 -186 -106 -197 -112 -10 -6 -25 -17 -33 -24 -7 -7
-18 -10 -23 -7 -5 4 -9 2 -9 -2 0 -5 -28 -23 -62 -41 -35 -18 -76 -42 -93 -52
-16 -10 -46 -27 -65 -38 -42 -22 -238 -135 -295 -169 -22 -13 -48 -26 -57 -30
-10 -3 -18 -9 -18 -14 0 -5 -9 -9 -20 -9 -11 0 -20 -4 -20 -9 0 -5 -12 -14
-27 -20 -16 -7 -39 -19 -53 -27 -14 -8 -43 -25 -65 -38 l-40 -24 -3 -2564 -2
-2564 45 -19 c25 -11 45 -23 45 -27 0 -3 12 -11 28 -17 15 -6 45 -22 67 -36
22 -14 51 -30 65 -37 14 -7 44 -25 66 -40 23 -15 44 -24 48 -21 3 4 6 1 6 -5
0 -7 4 -12 9 -12 5 0 55 -27 111 -60 56 -33 104 -60 106 -60 3 0 30 -16 60
-35 30 -19 56 -35 58 -35 3 0 80 -44 173 -97 92 -53 191 -109 218 -124 28 -14
77 -43 110 -63 33 -20 66 -36 73 -36 6 0 12 -4 12 -9 0 -5 19 -18 43 -30 42
-21 60 -31 108 -63 14 -10 29 -15 33 -11 3 3 6 1 6 -5 0 -7 4 -12 9 -12 5 0
44 -20 85 -45 42 -25 81 -45 86 -45 5 0 13 -7 18 -16 5 -9 11 -15 13 -14 6 3
62 -23 79 -36 14 -11 47 -30 135 -77 22 -12 42 -24 45 -27 3 -3 20 -13 38 -22
17 -10 47 -26 64 -35 18 -10 35 -20 38 -23 3 -3 16 -11 30 -18 56 -27 160 -88
172 -100 6 -6 15 -12 19 -12 7 0 167 -89 199 -110 8 -6 29 -17 45 -26 17 -8
44 -23 60 -34 17 -10 46 -27 65 -37 19 -10 63 -34 97 -55 35 -21 67 -38 73
-38 5 0 10 -4 10 -10 0 -5 4 -10 9 -10 5 0 48 -23 96 -50 48 -28 91 -50 96
-50 5 0 9 -3 9 -7 0 -5 10 -13 23 -18 32 -16 111 -59 117 -65 3 -3 16 -11 30
-18 14 -7 43 -23 65 -36 22 -14 64 -36 93 -51 28 -15 52 -31 52 -37 0 -6 3 -9
6 -5 3 3 24 -5 45 -19 21 -13 42 -24 46 -24 3 0 14 -6 22 -14 9 -7 45 -29 81
-48 36 -19 90 -50 120 -68 30 -18 84 -48 120 -68 36 -19 72 -40 80 -46 16 -12
25 -17 106 -61 27 -14 63 -35 79 -46 17 -10 40 -23 53 -29 12 -5 46 -24 75
-42 28 -18 66 -40 82 -48 17 -8 47 -25 67 -38 l37 -24 68 40 c143 83 179 104
206 115 15 6 27 15 27 19 0 4 4 8 10 8 5 0 39 18 75 40 36 22 69 40 74 40 5 0
16 6 23 13 8 6 23 17 33 23 11 6 47 26 80 44 33 18 97 55 142 82 45 26 84 48
87 48 3 0 30 16 60 35 30 19 57 35 60 35 2 0 37 19 78 43 40 24 98 58 129 75
31 17 106 60 167 96 61 35 113 62 116 59 3 -4 6 -2 6 4 0 6 15 16 33 24 17 7
34 16 37 20 3 3 37 23 75 44 39 21 86 49 105 62 19 12 39 23 43 23 5 0 21 8
35 18 15 11 57 35 94 55 37 20 88 50 114 67 27 16 51 30 55 30 5 0 28 14 52
30 25 17 50 30 55 30 6 0 17 6 24 13 8 6 23 17 33 23 11 6 41 22 67 37 25 14
104 59 175 100 70 40 150 86 178 101 27 15 110 63 185 106 75 43 158 90 185
105 28 15 77 43 110 62 33 19 67 39 75 43 8 5 92 53 185 107 94 54 179 103
191 109 11 6 86 48 165 94 79 46 164 94 189 108 25 14 59 34 75 44 17 10 39
22 50 28 11 5 43 23 70 40 28 17 58 33 68 37 9 3 17 10 17 16 0 6 3 8 6 4 3
-3 30 10 59 29 30 19 56 34 59 34 2 0 39 20 80 45 42 25 81 45 86 45 7 0 9
908 8 2567 l-3 2568 -40 22 c-22 13 -51 28 -65 35 -14 7 -27 15 -30 18 -3 3
-20 13 -38 23 -17 9 -47 25 -64 35 -18 9 -35 19 -38 22 -3 3 -25 16 -50 29
-25 14 -48 29 -51 34 -3 5 -9 8 -13 8 -6 -1 -53 22 -91 46 -11 7 -27 15 -35
19 -8 4 -39 22 -68 41 -29 18 -54 33 -57 33 -2 0 -26 13 -53 29 -26 15 -70 41
-98 56 -27 16 -65 38 -85 49 -83 47 -157 89 -199 113 -25 14 -63 36 -85 49
-22 13 -51 29 -65 36 -14 7 -27 15 -30 18 -3 3 -14 10 -25 16 -50 27 -113 63
-145 82 -19 12 -44 26 -55 32 -11 5 -42 23 -70 39 -27 17 -63 37 -80 46 -16 8
-52 28 -80 45 -27 16 -61 35 -75 42 -14 7 -27 15 -30 18 -3 3 -16 11 -30 17
-14 7 -43 24 -65 38 -22 14 -47 28 -55 32 -8 4 -52 29 -98 55 -46 26 -88 48
-93 48 -5 0 -9 3 -9 8 0 4 -18 16 -40 26 -22 11 -40 24 -40 29 0 6 -3 8 -6 4
-3 -3 -59 26 -125 64 -65 38 -145 83 -176 100 -32 17 -70 40 -85 50 -14 11
-28 19 -31 19 -3 0 -40 20 -81 45 -42 25 -79 45 -81 45 -3 0 -33 17 -68 39
-35 21 -73 42 -85 45 -12 4 -22 11 -22 16 0 5 -16 14 -35 21 -19 7 -35 17 -35
21 0 4 -4 8 -9 8 -5 0 -48 23 -96 50 -48 28 -91 50 -96 50 -5 0 -9 4 -9 9 0 5
-8 11 -17 14 -10 4 -45 22 -78 42 -33 19 -71 41 -85 47 -14 7 -27 15 -30 18
-3 3 -21 14 -40 24 -19 10 -53 28 -75 42 -22 13 -47 27 -55 31 -8 3 -33 18
-55 32 -22 14 -58 34 -80 46 -22 11 -59 33 -82 48 -24 15 -45 27 -47 27 -5 0
-234 130 -266 150 -8 6 -26 15 -40 22 -14 7 -32 17 -40 24 -8 6 -37 24 -65 39
-27 14 -70 37 -94 51 -24 13 -45 24 -45 23 -1 0 -14 -8 -31 -18z m187 -2884
c79 -46 151 -87 161 -90 9 -4 17 -11 17 -17 0 -5 9 -10 19 -10 11 0 22 -4 26
-9 3 -6 18 -16 33 -24 40 -20 104 -57 132 -76 14 -9 39 -23 55 -31 17 -8 32
-17 35 -20 3 -3 25 -16 50 -29 25 -13 52 -30 61 -38 9 -7 19 -10 22 -6 4 3 7
1 7 -5 0 -7 4 -12 10 -12 5 0 39 -18 75 -40 36 -22 67 -40 69 -40 2 0 34 -18
70 -40 36 -22 70 -40 74 -40 5 0 17 -9 27 -20 10 -11 22 -20 27 -20 11 0 218
-119 241 -138 9 -8 17 -12 17 -8 0 4 13 -2 29 -13 16 -12 34 -21 40 -21 6 0
11 -4 11 -10 0 -5 6 -10 14 -10 7 0 19 -7 26 -15 7 -8 16 -12 21 -9 5 3 9 2 9
-3 0 -4 10 -13 23 -19 41 -20 142 -77 147 -83 3 -4 16 -12 30 -19 14 -7 39
-20 55 -30 17 -10 55 -32 85 -49 111 -62 120 -68 120 -85 1 -22 1 -2190 0
-2251 0 -40 -3 -44 -42 -66 -74 -39 -107 -58 -120 -68 -7 -6 -39 -24 -70 -41
-32 -17 -101 -57 -155 -89 -54 -32 -100 -58 -103 -58 -3 0 -23 -12 -45 -25
-23 -14 -50 -30 -60 -37 -39 -24 -261 -151 -295 -169 -19 -11 -36 -22 -38 -26
-2 -5 -8 -8 -13 -8 -5 0 -38 -18 -74 -40 -36 -22 -70 -40 -75 -40 -6 0 -10 -4
-10 -8 0 -5 -16 -14 -35 -22 -19 -8 -35 -17 -35 -22 0 -4 -4 -8 -9 -8 -13 0
-134 -71 -142 -83 -3 -5 -9 -8 -13 -8 -8 2 -69 -30 -76 -39 -3 -3 -25 -17 -50
-29 -25 -12 -70 -38 -100 -56 -30 -19 -61 -34 -67 -35 -7 0 -13 -3 -13 -8 0
-4 -21 -18 -47 -32 -27 -13 -70 -38 -98 -56 -27 -17 -57 -34 -65 -37 -8 -4
-33 -18 -55 -32 -74 -46 -85 -49 -130 -24 -22 12 -47 27 -55 33 -8 6 -26 17
-39 24 -13 8 -39 22 -57 33 -32 17 -358 206 -469 271 -27 16 -58 32 -67 35
-10 3 -18 10 -18 15 0 5 -4 6 -10 3 -5 -3 -10 -1 -10 4 0 6 -7 11 -15 11 -8 0
-15 5 -15 10 0 6 -5 10 -10 10 -11 0 -276 152 -297 170 -7 6 -13 8 -13 4 0 -4
-8 0 -17 8 -10 8 -43 29 -73 45 -30 16 -78 44 -106 61 -28 18 -56 32 -63 32
-6 0 -11 4 -11 8 0 5 -16 14 -35 22 -19 8 -35 17 -35 22 0 4 -6 8 -14 8 -8 0
-21 6 -28 14 -8 7 -24 17 -36 20 -12 4 -22 12 -22 17 0 5 -6 9 -14 9 -8 0 -22
7 -30 16 -9 8 -16 13 -16 10 0 -6 -77 41 -90 54 -3 3 -11 6 -19 8 -8 2 -26 11
-40 21 -14 10 -53 33 -86 51 -146 81 -135 71 -135 115 -1 22 -1 539 -1 1150
l-1 1110 26 20 c15 12 52 34 84 50 31 16 59 31 62 34 3 3 19 13 35 21 17 8 32
17 35 21 3 3 25 17 50 30 58 33 104 60 160 93 25 15 57 32 73 39 15 6 27 15
27 19 0 4 4 8 10 8 5 0 33 15 62 32 58 36 91 55 156 89 23 13 42 27 42 31 0 4
9 8 19 8 11 0 23 5 26 11 4 5 17 14 28 19 12 6 40 21 62 35 22 14 49 29 60 35
11 5 43 23 70 40 28 16 69 40 93 52 23 12 42 26 42 30 0 4 5 8 10 8 8 0 130
67 200 110 8 5 56 32 105 60 50 28 97 55 105 60 8 6 35 21 60 35 25 14 52 30
60 35 58 37 152 90 160 90 6 0 10 5 10 11 0 5 5 7 10 4 6 -3 10 -2 10 4 0 8
15 15 42 20 4 0 71 -37 150 -82z"/>
</g>
</svg>
