<svg id="_0298_new_message_1" xmlns="http://www.w3.org/2000/svg" xmlns:xlink="http://www.w3.org/1999/xlink" viewBox="0 0 500 500" data-imageid="message-received-1-3" imageName="Message Received 1" class="illustrations_image" style="width: 215px;"><defs><style>.cls-1_message-received-1-3{clip-path:url(#clippath);}.cls-2_message-received-1-3{fill:none;}.cls-2_message-received-1-3,.cls-3_message-received-1-3,.cls-4_message-received-1-3,.cls-5_message-received-1-3,.cls-6_message-received-1-3,.cls-7_message-received-1-3,.cls-8_message-received-1-3,.cls-9_message-received-1-3,.cls-10_message-received-1-3,.cls-11_message-received-1-3,.cls-12_message-received-1-3,.cls-13_message-received-1-3,.cls-14_message-received-1-3,.cls-15_message-received-1-3,.cls-16_message-received-1-3,.cls-17_message-received-1-3,.cls-18_message-received-1-3,.cls-19_message-received-1-3{stroke-width:0px;}.cls-3_message-received-1-3{fill:url(#linear-gradient);}.cls-4_message-received-1-3{fill:url(#linear-gradient-11-message-received-1-3);}.cls-5_message-received-1-3{fill:url(#linear-gradient-12-message-received-1-3);}.cls-6_message-received-1-3{fill:url(#linear-gradient-13-message-received-1-3);}.cls-7_message-received-1-3{fill:url(#linear-gradient-10-message-received-1-3);}.cls-8_message-received-1-3{fill:url(#linear-gradient-15-message-received-1-3);}.cls-9_message-received-1-3{fill:url(#linear-gradient-14-message-received-1-3);}.cls-10_message-received-1-3{fill:url(#linear-gradient-4-message-received-1-3);}.cls-11_message-received-1-3{fill:url(#linear-gradient-2-message-received-1-3);}.cls-12_message-received-1-3{fill:url(#linear-gradient-3-message-received-1-3);}.cls-13_message-received-1-3{fill:url(#linear-gradient-8-message-received-1-3);}.cls-14_message-received-1-3{fill:url(#linear-gradient-9-message-received-1-3);}.cls-15_message-received-1-3{fill:url(#linear-gradient-7-message-received-1-3);}.cls-16_message-received-1-3{fill:url(#linear-gradient-5-message-received-1-3);}.cls-17_message-received-1-3{fill:url(#linear-gradient-6-message-received-1-3);}.cls-18_message-received-1-3{isolation:isolate;opacity:.24;}.cls-18_message-received-1-3,.cls-19_message-received-1-3{fill:#68e1fd;}</style><linearGradient id="linear-gradient-message-received-1-3" x1="-732.69" y1="1615.32" x2="-699.43" y2="1634.07" gradientTransform="translate(831.57 1793.46) scale(1 -1)" gradientUnits="userSpaceOnUse"><stop offset="0" stop-color="#fff" stop-opacity="0"/><stop offset=".95" stop-color="#fff"/></linearGradient><linearGradient id="linear-gradient-2-message-received-1-3" x1="-697.39" y1="1640.95" x2="-711.76" y2="1623.19" xlink:href="#linear-gradient-message-received-1-3"/><linearGradient id="linear-gradient-3-message-received-1-3" x1="1767.35" y1="1623.93" x2="1800.6" y2="1642.69" gradientTransform="translate(2014.58 1793.46) rotate(-180)" xlink:href="#linear-gradient-message-received-1-3"/><linearGradient id="linear-gradient-4-message-received-1-3" x1="1802.65" y1="1649.57" x2="1788.26" y2="1631.82" gradientTransform="translate(2014.58 1793.46) rotate(-180)" xlink:href="#linear-gradient-message-received-1-3"/><linearGradient id="linear-gradient-5-message-received-1-3" x1="-673.09" y1="1635.81" x2="-675.34" y2="1540.89" gradientTransform="translate(849 1803.66) scale(1 -1)" xlink:href="#linear-gradient-message-received-1-3"/><linearGradient id="linear-gradient-6-message-received-1-3" x1="951.8" y1="1674.72" x2="929.86" y2="1647.76" gradientTransform="translate(780.22 1997.93) rotate(-48.02) scale(1 -1)" xlink:href="#linear-gradient-message-received-1-3"/><linearGradient id="linear-gradient-7-message-received-1-3" x1="-640.04" y1="1629.18" x2="-631.5" y2="1636.03" gradientTransform="translate(849 1803.66) scale(1 -1)" xlink:href="#linear-gradient-message-received-1-3"/><linearGradient id="linear-gradient-8-message-received-1-3" x1="-511.18" y1="1428.16" x2="-512.93" y2="1581.56" gradientTransform="translate(849 1803.66) scale(1 -1)" gradientUnits="userSpaceOnUse"><stop offset="0" stop-color="#231f20" stop-opacity="0"/><stop offset="1" stop-color="#231f20"/></linearGradient><linearGradient id="linear-gradient-9-message-received-1-3" x1="-600.98" y1="1581.41" x2="-549.51" y2="1581.41" xlink:href="#linear-gradient-8-message-received-1-3"/><linearGradient id="linear-gradient-10-message-received-1-3" x1="-486.03" y1="1618.14" x2="-495.35" y2="1459.54" gradientTransform="translate(831.57 1793.46) scale(1 -1)" xlink:href="#linear-gradient-8-message-received-1-3"/><linearGradient id="linear-gradient-11-message-received-1-3" x1="-600.67" y1="1554.25" x2="-599.5" y2="1534.41" xlink:href="#linear-gradient-8-message-received-1-3"/><clipPath id="clippath_message-received-1-3"><path class="cls-2_message-received-1-3" d="M238.81,251.63l60.75,11.11v-55.7c-.02-14.2-11.54-25.7-25.74-25.7h0c-14.22,0-27.9,14.28-27.9,28.49l-7.11,41.8Z"/></clipPath><linearGradient id="linear-gradient-12-message-received-1-3" x1="475.18" y1="1587.18" x2="432.78" y2="1547.9" gradientTransform="translate(760.68 1802.23) rotate(-32.49) scale(1 -1)" xlink:href="#linear-gradient-message-received-1-3"/><linearGradient id="linear-gradient-13-message-received-1-3" x1="471.6" y1="1587.41" x2="451.68" y2="1562.94" gradientTransform="translate(760.68 1802.23) rotate(-32.49) scale(1 -1)" xlink:href="#linear-gradient-message-received-1-3"/><linearGradient id="linear-gradient-14-message-received-1-3" x1="470.38" y1="1614.77" x2="439.4" y2="1586.08" gradientTransform="translate(760.68 1802.23) rotate(-32.49) scale(1 -1)" xlink:href="#linear-gradient-message-received-1-3"/><linearGradient id="linear-gradient-15-message-received-1-3" x1="467.77" y1="1614.94" x2="453.21" y2="1597.06" gradientTransform="translate(760.68 1802.23) rotate(-32.49) scale(1 -1)" xlink:href="#linear-gradient-message-received-1-3"/></defs><g id="background_message-received-1-3"><path class="cls-18_message-received-1-3 targetColor" d="M493.43,349.87c-.24,2.56-.69,5.1-1.37,7.58-1.52,5.76-3.82,11.28-6.85,16.41-17.5,30.53-51.77,48.18-86.24,55.4-34.47,7.22-70.08,5.63-105.25,7.25-47.52,2.15-94.91,10.13-142.42,7.51-22.52-1.26-44.85-4.89-66.62-10.83-104.94,0-53.63-160.26-47.61-221.01,2.6-26.17,5.64-53.61,20.59-75.26,17.67-25.61,48.96-38.39,79.57-43.94,30.61-5.55,62.14-5.27,92.55-11.65,49.73-10.43,97.81-38.56,147.98-30.58,49.23,7.87,89.15,54.7,89.13,104.57,0,34.98-15.87,69.76-6.76,104.6,7.92,30.26,36.35,57.04,33.3,89.96Z" style="fill: rgb(13, 206, 250);"/><path class="cls-18_message-received-1-3 targetColor" d="M492.02,357.44c-1.52,5.76-3.82,11.28-6.85,16.41-17.5,30.53-51.77,48.18-86.24,55.4-34.47,7.22-70.08,5.63-105.25,7.25-47.52,2.15-94.91,10.13-142.42,7.51-22.51-1.26-44.83-4.89-66.58-10.83-14.59-3.97-44.73-9.12-53.55-22.67-5.52-8.43-6.38-24.23-6.61-37.54,3.3.52,6.58,1.3,9.46,1.58,9.76.91,19.65,1,29.44,1.3,20.74.66,41.49,1.11,62.25,1.33,82.66.88,165.26-1.84,247.8-8.15,39.6-3.03,79.12-6.9,118.56-11.59Z" style="fill: rgb(13, 206, 250);"/><path class="cls-18_message-received-1-3 targetColor" d="M275.42,381.71c-13.57,2.43-27.05,5.57-40.77,6.9-8.92.87-18.75,1.31-25.21,7.51-1.54,1.31-2.57,3.13-2.88,5.12-.36,4.29,4.11,7.29,8.12,8.86,11.69,4.62,24.4,5.94,36.95,6.75,20.44,1.29,40.93,1.32,61.42,1.34l61.02.05c18.01,0,38-.73,50.91-13.3,2.55-2.49,4.8-5.55,5.24-9.12.71-5.73-3.65-11.12-8.89-13.52-9.12-4.16-22.73-3.29-32.65-4.39-12.9-1.42-25.85-2.21-38.85-2.36-24.95-.3-49.86,1.76-74.42,6.15Z" style="fill: rgb(13, 206, 250);"/></g><g id="new_messages_message-received-1-3"><path class="cls-19_message-received-1-3 targetColor" d="M142.38,172.71c-.22-3.79.23-7.77-1.33-11.23-1.49-2.96-3.96-5.3-6.98-6.64-3.01-1.31-6.14-2.32-9.35-3.01-8.25-2.12-16.37-4.75-24.3-7.87.8,5.67,5.47,9.92,9.76,13.68-.97.21-1.9.6-2.74,1.15-.84.57-1.3,1.55-1.2,2.56.19.71.58,1.34,1.13,1.82,1.79,1.79,4.05,3.05,6.51,3.65l-6.68,2.74c-.32.09-.61.29-.8.57-.29.52.1,1.15.53,1.57,3.21,3.14,8.34,2.81,12.76,2.27-2.18,1.04-4.1,2.54-5.64,4.39-.22.21-.34.5-.31.8.1.36.53.47.91.53,3.93.55,7.93-.05,11.52-1.72-1.06.83-1.88,1.93-2.39,3.17-.15.28-.15.63,0,.91.18.17.42.26.67.26,3.21.31,6.43-.61,8.98-2.59.11,2.3,2.06,4.18,4.24,4.92,2.22.6,4.55.75,6.83.45,4.56-.32,1.82-2.94.26-4.89-1.53-2.2-2.36-4.81-2.39-7.49Z" style="fill: rgb(13, 206, 250);"/><path class="cls-3_message-received-1-3" d="M142.38,172.71c-.22-3.79.23-7.77-1.33-11.23-1.49-2.96-3.96-5.3-6.98-6.64-3.01-1.31-6.14-2.32-9.35-3.01-8.25-2.12-16.37-4.75-24.3-7.87.8,5.67,5.47,9.92,9.76,13.68-.97.21-1.9.6-2.74,1.15-.84.57-1.3,1.55-1.2,2.56.19.71.58,1.34,1.13,1.82,1.79,1.79,4.05,3.05,6.51,3.65l-6.68,2.74c-.32.09-.61.29-.8.57-.29.52.1,1.15.53,1.57,3.21,3.14,8.34,2.81,12.76,2.27-2.18,1.04-4.1,2.54-5.64,4.39-.22.21-.34.5-.31.8.1.36.53.47.91.53,3.93.55,7.93-.05,11.52-1.72-1.06.83-1.88,1.93-2.39,3.17-.15.28-.15.63,0,.91.18.17.42.26.67.26,3.21.31,6.43-.61,8.98-2.59.11,2.3,2.06,4.18,4.24,4.92,2.22.6,4.55.75,6.83.45,4.56-.32,1.82-2.94.26-4.89-1.53-2.2-2.36-4.81-2.39-7.49Z"/><path class="cls-19_message-received-1-3 targetColor" d="M135.6,172.42c-.15-2.59.15-5.31-.91-7.67-1.01-2.03-2.7-3.64-4.78-4.56-2.05-.9-4.19-1.59-6.38-2.06-5.64-1.45-11.18-3.24-16.6-5.38.54,3.87,3.7,6.77,6.66,9.33-.65.15-1.27.42-1.82.79-.57.39-.89,1.06-.82,1.75.12.48.39.91.77,1.24,1.23,1.22,2.77,2.08,4.45,2.5l-4.56,1.88c-.22.06-.42.2-.56.39-.2.36.07.78.36,1.07,2.2,2.15,5.71,1.92,8.75,1.55-1.49.71-2.8,1.74-3.86,3.01-.15.14-.23.34-.21.55.06.24.36.32.6.36,2.68.38,5.42-.03,7.88-1.18-.72.57-1.28,1.32-1.63,2.17-.08.21-.15.47,0,.65.12.12.29.18.46.17,2.2.22,4.4-.41,6.14-1.76.21,1.6,1.34,2.92,2.89,3.35,1.52.41,3.11.51,4.67.31,3.15-.22,1.23-2.01.18-3.35-1.06-1.5-1.65-3.28-1.69-5.11Z" style="fill: rgb(13, 206, 250);"/><path class="cls-11_message-received-1-3" d="M135.6,172.42c-.15-2.59.15-5.31-.91-7.67-1.01-2.03-2.7-3.64-4.78-4.56-2.05-.9-4.19-1.59-6.38-2.06-5.64-1.45-11.18-3.24-16.6-5.38.54,3.87,3.7,6.77,6.66,9.33-.65.15-1.27.42-1.82.79-.57.39-.89,1.06-.82,1.75.12.48.39.91.77,1.24,1.23,1.22,2.77,2.08,4.45,2.5l-4.56,1.88c-.22.06-.42.2-.56.39-.2.36.07.78.36,1.07,2.2,2.15,5.71,1.92,8.75,1.55-1.49.71-2.8,1.74-3.86,3.01-.15.14-.23.34-.21.55.06.24.36.32.6.36,2.68.38,5.42-.03,7.88-1.18-.72.57-1.28,1.32-1.63,2.17-.08.21-.15.47,0,.65.12.12.29.18.46.17,2.2.22,4.4-.41,6.14-1.76.21,1.6,1.34,2.92,2.89,3.35,1.52.41,3.11.51,4.67.31,3.15-.22,1.23-2.01.18-3.35-1.06-1.5-1.65-3.28-1.69-5.11Z"/><path class="cls-19_message-received-1-3 targetColor" d="M203.75,164.08c.22-3.79-.23-7.77,1.32-11.23,1.49-2.96,3.96-5.31,6.99-6.65,3.01-1.31,6.14-2.32,9.35-3.01,8.25-2.12,16.36-4.75,24.29-7.87-.79,5.66-5.42,9.91-9.76,13.68.98.21,1.9.61,2.74,1.16.84.56,1.31,1.54,1.2,2.55-.18.71-.57,1.35-1.12,1.82-1.8,1.79-4.05,3.05-6.51,3.65l6.67,2.74c.33.09.61.3.81.57.29.52-.11,1.15-.53,1.56-3.22,3.15-8.35,2.82-12.81,2.27,2.18,1.04,4.1,2.55,5.64,4.4.23.2.34.5.3.8-.09.35-.52.46-.91.52-3.93.55-7.93-.04-11.52-1.71,1.06.83,1.89,1.93,2.4,3.17.16.28.16.63,0,.91-.18.17-.42.27-.67.26-3.21.31-6.42-.61-8.98-2.58-.1,2.3-2.06,4.18-4.23,4.92-2.23.59-4.55.74-6.83.44-4.61-.31-1.82-2.94-.26-4.89,1.69-2.08,2.26-4.9,2.42-7.48Z" style="fill: rgb(13, 206, 250);"/><path class="cls-12_message-received-1-3" d="M203.75,164.08c.22-3.79-.23-7.77,1.32-11.23,1.49-2.96,3.96-5.31,6.99-6.65,3.01-1.31,6.14-2.32,9.35-3.01,8.25-2.12,16.36-4.75,24.29-7.87-.79,5.66-5.42,9.91-9.76,13.68.98.21,1.9.61,2.74,1.16.84.56,1.31,1.54,1.2,2.55-.18.71-.57,1.35-1.12,1.82-1.8,1.79-4.05,3.05-6.51,3.65l6.67,2.74c.33.09.61.3.81.57.29.52-.11,1.15-.53,1.56-3.22,3.15-8.35,2.82-12.81,2.27,2.18,1.04,4.1,2.55,5.64,4.4.23.2.34.5.3.8-.09.35-.52.46-.91.52-3.93.55-7.93-.04-11.52-1.71,1.06.83,1.89,1.93,2.4,3.17.16.28.16.63,0,.91-.18.17-.42.27-.67.26-3.21.31-6.42-.61-8.98-2.58-.1,2.3-2.06,4.18-4.23,4.92-2.23.59-4.55.74-6.83.44-4.61-.31-1.82-2.94-.26-4.89,1.69-2.08,2.26-4.9,2.42-7.48Z"/><path class="cls-19_message-received-1-3 targetColor" d="M210.53,163.79c.15-2.59-.15-5.31.91-7.68,1.02-2.03,2.7-3.64,4.78-4.56,2.05-.89,4.19-1.58,6.38-2.05,5.64-1.46,11.18-3.26,16.6-5.39-.55,3.87-3.71,6.78-6.67,9.34.65.15,1.27.41,1.82.78.57.39.89,1.06.83,1.75-.13.49-.4.92-.77,1.25-1.23,1.22-2.77,2.08-4.45,2.49l4.56,1.89c.22.06.41.2.55.38.2.36-.07.79-.36,1.08-2.2,2.14-5.71,1.91-8.75,1.55,1.49.71,2.8,1.74,3.85,3.01.16.14.24.34.21.55-.06.24-.36.32-.6.36-2.68.38-5.42-.03-7.88-1.18.72.57,1.29,1.32,1.64,2.17.11.2.11.44,0,.64-.12.12-.29.19-.46.18-2.2.21-4.39-.42-6.14-1.77-.21,1.6-1.34,2.92-2.89,3.36-1.52.41-3.11.51-4.68.3-3.15-.21-1.22-2.01-.17-3.34,1.06-1.5,1.65-3.28,1.7-5.11Z" style="fill: rgb(13, 206, 250);"/><path class="cls-10_message-received-1-3" d="M210.53,163.79c.15-2.59-.15-5.31.91-7.68,1.02-2.03,2.7-3.64,4.78-4.56,2.05-.89,4.19-1.58,6.38-2.05,5.64-1.46,11.18-3.26,16.6-5.39-.55,3.87-3.71,6.78-6.67,9.34.65.15,1.27.41,1.82.78.57.39.89,1.06.83,1.75-.13.49-.4.92-.77,1.25-1.23,1.22-2.77,2.08-4.45,2.49l4.56,1.89c.22.06.41.2.55.38.2.36-.07.79-.36,1.08-2.2,2.14-5.71,1.91-8.75,1.55,1.49.71,2.8,1.74,3.85,3.01.16.14.24.34.21.55-.06.24-.36.32-.6.36-2.68.38-5.42-.03-7.88-1.18.72.57,1.29,1.32,1.64,2.17.11.2.11.44,0,.64-.12.12-.29.19-.46.18-2.2.21-4.39-.42-6.14-1.77-.21,1.6-1.34,2.92-2.89,3.36-1.52.41-3.11.51-4.68.3-3.15-.21-1.22-2.01-.17-3.34,1.06-1.5,1.65-3.28,1.7-5.11Z"/><rect class="cls-19_message-received-1-3 targetColor" x="140.84" y="177.82" width="68.66" height="42.32" transform="translate(-19.56 19.09) rotate(-5.91)" style="fill: rgb(13, 206, 250);"/><polygon class="cls-16_message-received-1-3" points="211.5 216.49 143.2 223.55 138.85 181.46 208.39 173.72 211.5 216.49"/><polygon class="cls-17_message-received-1-3" points="138.85 181.46 176.71 212.68 207.46 174.99 138.85 181.46"/><circle class="cls-19_message-received-1-3 targetColor" cx="209.25" cy="173.96" r="9.56" style="fill: rgb(13, 206, 250);"/><circle class="cls-15_message-received-1-3" cx="209.44" cy="174.09" r="9.56"/></g><g id="inbox_message-received-1-3"><rect class="cls-19_message-received-1-3 targetColor" x="325.55" y="250.46" width="23.33" height="143.87" style="fill: rgb(13, 206, 250);"/><rect class="cls-13_message-received-1-3" x="325.55" y="250.46" width="23.33" height="143.87"/><path class="cls-19_message-received-1-3 targetColor" d="M403.73,206.29v57.01h-159.84v-57.01c0-16.41,13.3-29.71,29.71-29.71.01,0,.02,0,.04,0h100.34c16.42,0,29.73,13.29,29.75,29.71Z" style="fill: rgb(13, 206, 250);"/><path class="cls-14_message-received-1-3" d="M273.76,181.52h0c14.21,0,25.74,11.52,25.74,25.74h0v55.7h-51.47v-55.7c0-14.21,11.52-25.74,25.74-25.74Z"/><path class="cls-7_message-received-1-3" d="M403.74,206.28v57.01h-98.46v-60.34c-2.94-15.76-14.04-23.01-23.18-26.35h91.9c16.41-.01,29.72,13.28,29.74,29.68Z"/><path class="cls-19_message-received-1-3 targetColor" d="M196.66,255.12h104.5c2.26,0,4.09,1.83,4.09,4.09h0c0,2.26-1.83,4.09-4.09,4.09h-104.5c-2.26,0-4.09-1.83-4.09-4.09h0c0-2.26,1.83-4.09,4.09-4.09Z" style="fill: rgb(13, 206, 250);"/><path class="cls-4_message-received-1-3" d="M196.66,255.12h104.5c2.26,0,4.09,1.83,4.09,4.09h0c0,2.26-1.83,4.09-4.09,4.09h-104.5c-2.26,0-4.09-1.83-4.09-4.09h0c0-2.26,1.83-4.09,4.09-4.09Z"/><path class="cls-19_message-received-1-3 targetColor" d="M360.94,214.95c-.22.73-.91,2.94-1.05,3.75l-2.19,8.08c-.1.35-.15.72-.15,1.08-.04.46.3.87.76.91.05,0,.1,0,.15,0,.84-.06,1.65-.38,2.3-.91,1.94-1.75,3.02-4.26,2.94-6.87.08-3.18-1.51-6.17-4.18-7.9-2-1.08-4.24-1.6-6.51-1.53-7.68,0-13.06,5.1-13.06,12.3s4.83,11.56,12.14,11.56c1.88,0,3.76-.27,5.56-.8,1.44-.44,2.82-1.09,4.08-1.92l2.22,3.2c-1.41.92-2.94,1.63-4.56,2.11-2.5.77-5.1,1.17-7.71,1.17-5.12,0-9.12-1.46-12-4.33-2.79-2.88-4.31-6.75-4.22-10.76-.11-4.23,1.49-8.32,4.44-11.35,3.35-3.35,7.74-4.99,13.38-4.99,8.47,0,14.5,5.47,14.5,13.06.06,3.27-1.18,6.43-3.46,8.77-1.79,1.85-4.23,2.92-6.8,2.98-1.22.09-2.39-.45-3.13-1.42-.19-.34-.3-.73-.32-1.12-1.17,1.5-2.98,2.35-4.88,2.29-3.6,0-5.89-2.69-5.89-6.84,0-6.14,4.04-11.24,8.87-11.24,2.03,0,3.05.51,4.04,2.04l.36-1.28,4.34-.03ZM353.45,225.75c.88-1.74,1.37-3.65,1.45-5.6,0-1.5-.84-2.51-2.11-2.51s-2.65.91-3.56,2.62c-.9,1.69-1.39,3.56-1.46,5.47,0,1.92.73,2.94,2.12,2.94s2.65-1.08,3.56-2.93Z" style="fill: rgb(13, 206, 250);"/><g class="cls-1_message-received-1-3"><rect class="cls-19_message-received-1-3 targetColor" x="282.46" y="204.8" width="38.42" height="62.32" transform="translate(18.61 493.95) rotate(-80.38)" style="fill: rgb(13, 206, 250);"/><polygon class="cls-5_message-received-1-3" points="329.16 260.13 267.7 249.71 274.13 211.84 336.84 221.97 329.16 260.13"/><polygon class="cls-6_message-received-1-3" points="274.13 211.84 299.65 248.35 335.72 222.85 274.13 211.84"/><rect class="cls-19_message-received-1-3 targetColor" x="270.71" y="185.03" width="28.07" height="45.53" transform="translate(32.29 453.81) rotate(-80.38)" style="fill: rgb(13, 206, 250);"/><polygon class="cls-9_message-received-1-3" points="304.84 225.45 259.95 217.84 264.64 190.17 310.44 197.57 304.84 225.45"/><polygon class="cls-8_message-received-1-3" points="264.64 190.17 283.28 216.84 309.62 198.22 264.64 190.17"/></g></g></svg>