<svg xmlns="http://www.w3.org/2000/svg" xmlns:xlink="http://www.w3.org/1999/xlink" width="500" height="380" viewBox="0 0 500 380"><defs><clipPath id="a"><rect width="500" height="380" transform="translate(10294 3760)" fill="#fff" stroke="#707070" stroke-width="1" opacity="0.2"/></clipPath><linearGradient id="b" x1="-3.402" y1="70.742" x2="-3.156" y2="69.991" gradientUnits="objectBoundingBox"><stop offset="0" stop-color="#eaeaea"/><stop offset="1" stop-color="#a3a3a3"/></linearGradient><linearGradient id="c" x1="-34.826" y1="78.211" x2="-29.922" y2="71.066" gradientUnits="objectBoundingBox"><stop offset="0" stop-color="#231f20"/><stop offset="0.08" stop-color="#231f20" stop-opacity="0.69"/><stop offset="0.21" stop-color="#231f20" stop-opacity="0.322"/><stop offset="1" stop-color="#231f20" stop-opacity="0"/></linearGradient><linearGradient id="d" x1="-29.111" y1="60.774" x2="-25.008" y2="55.259" xlink:href="#c"/><linearGradient id="e" x1="8.893" y1="50.689" x2="11.355" y2="49.744" xlink:href="#c"/><linearGradient id="f" x1="0.777" y1="-0.078" x2="-1.185" y2="4.713" gradientUnits="objectBoundingBox"><stop offset="0" stop-color="#231f20" stop-opacity="0"/><stop offset="1" stop-color="#231f20"/></linearGradient><linearGradient id="g" x1="0.515" y1="1.078" x2="0.453" y2="-1.501" xlink:href="#f"/><linearGradient id="h" x1="20.022" y1="540.787" x2="40.111" y2="508.719" xlink:href="#c"/><linearGradient id="i" x1="-0.125" y1="-0.096" x2="5.39" y2="4.087" xlink:href="#f"/><linearGradient id="j" x1="17.784" y1="83.755" x2="28.399" y2="80.62" xlink:href="#c"/><linearGradient id="k" x1="24.495" y1="142.365" x2="48.884" y2="133.806" xlink:href="#c"/><linearGradient id="l" x1="7.536" y1="121.938" x2="7.737" y2="117.725" xlink:href="#c"/><linearGradient id="m" x1="-0.72" y1="-0.484" x2="5.163" y2="4.043" xlink:href="#f"/><linearGradient id="n" x1="13.961" y1="201.359" x2="27.262" y2="189.364" xlink:href="#c"/><linearGradient id="o" x1="35.966" y1="317.673" x2="73.552" y2="298.768" xlink:href="#c"/></defs><g transform="translate(-10294 -3760)" clip-path="url(#a)"><g transform="translate(10287.451 3692.988)"><path d="M224.49,104.48C123.39,55.56,61.55,129.44,54.28,147.79c-24.4,62.23,13.06,114.3-21.68,156.26S19.59,457.4,136.67,418.33s225.69,1.47,282.13-13.01,96.92-176.5,37.6-222.81c-52.1-40.71-148.22-37.57-231.91-78.03Z" fill="#68e1fd" opacity="0.18" style="isolation:isolate"/><path d="M110.02,332.15l-36.19,6.29,193.14,45.92,198.69-40.62L340.57,311.9Z" fill="#68e1fd" opacity="0.31" style="isolation:isolate"/><path d="M261.45,303.09l75.23-127.28a5.53,5.53,0,0,1,5.16-2.77l149.19,6.05a5.743,5.743,0,0,1,5.49,5.98,5.817,5.817,0,0,1-.77,2.64L410.48,332.27,261.46,303.1Z" fill="#68e1fd"/><path d="M108.3,326.05l1.69,6.02a5.9,5.9,0,0,0,4.49,4.24L247,368.17a13.4,13.4,0,0,0,5.24.17l149.19-24.49a6.272,6.272,0,0,0,5.24-6.13v-5.93l-298.38-5.74Z" fill="rgba(0,0,0,0)"/><path d="M257.57,302.64,332.8,175.36a5.675,5.675,0,0,1,5.16-2.77l149.19,6.07a5.743,5.743,0,0,1,5.49,5.98,5.817,5.817,0,0,1-.77,2.64L406.6,331.84l-149.02-29.2Z" fill="#473f47"/><path d="M406.59,331.79,249.58,357.08a9.146,9.146,0,0,1-3.38,0L108.3,326.05l149.27-23.4,149.02,29.14Z" fill="url(#b)"/><path d="M184.03,316.65l125.26,23.68,68.35-10.21L256.4,305.03Z" fill="#473f47"/><path d="M155.47,333.73l52.68-10.48,62.87,11.59L218.53,346.7Z" fill="#473f47"/><path d="M163.34,338.44a14.086,14.086,0,0,0,7.27,5.13c4.44,1.05,23.71,5.55,23.71,5.55a7.478,7.478,0,0,0,5.55-2.38l-36.52-8.29Z" fill="#eaeaea"/><path d="M262.76,299.18l138.67,27.78,79.31-137.07L333.19,179.77Z" fill="#fff"/><path d="M345.36,205.59a12.5,12.5,0,0,1,3.47.69,2.155,2.155,0,0,0,1.58,0" fill="none" stroke="#f8f8f8" stroke-linecap="round" stroke-linejoin="round" stroke-width="1.11" opacity="0.43" style="isolation:isolate"/><path d="M310.53,285.03l-15.55-3.49,12.23-24.13,15.58,3.5Z" fill="#68e1fd"/><path d="M329.75,289.36l-15.58-3.52,24.95-49.11,15.56,3.49Z" fill="#68e1fd"/><path d="M348.94,293.68l-15.56-3.52,15.17-29.92,15.59,3.52Z" fill="#68e1fd"/><path d="M368.16,297.98l-15.59-3.49,32.86-64.7,15.56,3.5Z" fill="#68e1fd"/><path d="M329.75,289.36l-15.58-3.52,24.95-49.11,15.56,3.49Z" fill="url(#c)"/><path d="M368.16,297.98l-15.59-3.49,32.86-64.7,15.56,3.5Z" fill="url(#d)"/><path d="M387.35,302.31l-15.56-3.49,42.01-82.78,15.56,3.49Z" fill="#68e1fd"/><path d="M180.15,323.8a14.952,14.952,0,0,1-.55,4.16,1.049,1.049,0,0,1-.44.61,1.193,1.193,0,0,1-1.19-.19,8.324,8.324,0,0,1-3.36-9.68,11.537,11.537,0,0,1,3.44-5.93l2.99-2.16a5.905,5.905,0,0,1,1.53-.86,4.753,4.753,0,0,1,1.8-.19,8.571,8.571,0,0,1,3.13.55,1.435,1.435,0,0,1,.31.19.721.721,0,0,1,0,.67,7.177,7.177,0,0,1-2.16,1.75,11.589,11.589,0,0,0-4.6,6.63,17.828,17.828,0,0,0-.89,4.46Z" fill="#ffb4a3"/><path d="M246.56,303.17a2.532,2.532,0,0,0-.31.83,1.463,1.463,0,0,0,0,.72,5.882,5.882,0,0,0,1.97,2.47c1,.8,2.02,1.61,3.08,2.33a2.164,2.164,0,0,0,2,.55,1.557,1.557,0,0,0,.69-1.83,6.057,6.057,0,0,0-1.05-1.83,3.057,3.057,0,0,1-.72-1.94c0-1.16,1.3-1.94,1.36-3.11s-1.11-2.22-1.94-2.77c-2.11-1-4.27,3.05-5.07,4.58Z" fill="#ffb4a3"/><path d="M276.98,273.77a77.9,77.9,0,0,1-10.81,15.11c-2.25,2.77-4.55,5.27-6.88,7.85-1.05,1.16-2.16,2.27-3.16,3.47s-2.02,1.97-3.97.94l-.47-.31a1.378,1.378,0,0,1-.25-.17,11.417,11.417,0,0,1-1.86-1.75,1.058,1.058,0,0,1-.22-.42.616.616,0,0,1,0-.33c1.28-2.94,2.58-5.85,3.85-8.79a27.112,27.112,0,0,1,3.8-7.07c2.3-2.77,4.52-5.55,6.79-8.32a181.736,181.736,0,0,1-20.33-14.78,15.335,15.335,0,0,1-2.44-2.77c-10.51-17.53-14.97-20.38-14.97-20.38l27.31-1.53s21.55,27.98,24.54,34.36c.69,1.69-.31,3.58-.94,4.88Z" fill="#473f47"/><path d="M243.95,258.22c-1.66,3.47-21.93,26.12-21.93,26.12q-8.325,7.53-16.64,14.78c-3.38,2.77-6.79,5.55-10.32,8.32a24.6,24.6,0,0,1-8.32,5.05,4.963,4.963,0,0,1-1.44,0,6.826,6.826,0,0,1-2.27-.61.411.411,0,0,1-.22,0,3.436,3.436,0,0,1-1.72-1.8c-.78-2.16,3.47-5.21,4.88-6.66l6.63-6.85q6.5-6.66,12.95-13.37l6.07-6.24s12.09-37.82,14.81-40.74a1.634,1.634,0,0,1,.42-.31,4.064,4.064,0,0,1,2.11-.5h0a14.439,14.439,0,0,1,2.08,0h0a72.454,72.454,0,0,1,13.42,3.6s1.16,15.7-.5,19.19Z" fill="#473f47"/><path d="M217.61,273.36c-5.35,11.09-15.92,18.47-24.54,27.2a91.8,91.8,0,0,0-6.71,7.65,15.6,15.6,0,0,1-3.58,3.58.411.411,0,0,1-.22,0,3.436,3.436,0,0,1-1.72-1.8c-.78-2.16,3.47-5.21,4.88-6.66l6.63-6.85q6.5-6.66,12.95-13.37l6.07-6.24s12.09-37.82,14.81-40.74a1.634,1.634,0,0,1,.42-.31,11.575,11.575,0,0,1,2.11-.5h0a6.78,6.78,0,0,1,1.8,0h.28c5.88,1.25.64,6.05-1.16,8.76a60,60,0,0,0-6.74,13.53,147.2,147.2,0,0,1-5.27,15.72Z" fill="url(#e)"/><path d="M308.59,216.62a12.434,12.434,0,0,0-.89,1.14c-.31.42-.58.86-.92,1.41a3.576,3.576,0,0,1-.69.86,2.7,2.7,0,0,1-.97.53,5.166,5.166,0,0,1-3.38-.83,73.111,73.111,0,0,0-9.71-2.25c-3.55-1.11-7.02-2.44-10.48-3.8l-8.32-3.16c-2.77-1.11-5.55-2.16-8.32-3.55l-1.58-.86c-.78-.44-1.75-.94-2.55-.53a2.735,2.735,0,0,0-.8.86,9.813,9.813,0,0,0-1.03,4.88,17.427,17.427,0,0,1-1.03,4.46c-.97,2.77-1.83,5.55-2.94,8.32a21.26,21.26,0,0,1-3.47,7.24,6.712,6.712,0,0,1-3.97,1.39,47.327,47.327,0,0,0-9.1,1.16,27.616,27.616,0,0,1-4.08,1.39,10.819,10.819,0,0,1-6.21-1.03c-1.72-.94-1.3-2.77-.94-4.38,1.36-6.66,3.13-10.68-.78-16.64.78,1.16-10.09,7.54-11.54,7.76-6.1.92-10.45-2.77-15.5-5.55a72.257,72.257,0,0,0-9.48-3.88,18.242,18.242,0,0,0-2.99-.86,9.485,9.485,0,0,1-3.13-.44,3.631,3.631,0,0,1-.92-.78,7.162,7.162,0,0,1-1.22-1.72,4.341,4.341,0,0,0-1.5-1.89,3.916,3.916,0,0,0-2.97,0,7.234,7.234,0,0,1-1.53.28.568.568,0,0,1-.55-.17.483.483,0,0,1,0-.67,1.521,1.521,0,0,1,.61-.39c1.25-.53,2.5-1.03,3.74-1.47-1.28-.83-2.94-.25-4.41-.5a1.253,1.253,0,0,1-.53-.19.673.673,0,0,1,.19-.92,1.734,1.734,0,0,1,1-.22c1.44,0,2.77-.17,4.33-.22-1.5-1.33-4.13-.44-5.55-1.75a3.759,3.759,0,0,1,3.11-.92,14.908,14.908,0,0,1,4.96.72,13.605,13.605,0,0,1,2.77,1.47,85.334,85.334,0,0,0,10.48,7.1,29.57,29.57,0,0,0,7.82,2.25c1.16.22,2.38.31,3.55.47s2.77.64,3.99.94a3.512,3.512,0,0,0,1.58,0,2.9,2.9,0,0,0,1.08-.64,25.679,25.679,0,0,0,5.57-7.04c1.66-2.77,3.66-5.21,5.55-7.85a8.723,8.723,0,0,1,2.77-2.77c2.02-1.11,4.55-.42,6.85-.69a6.9,6.9,0,0,0,4.88-2.77c1.08-1.77.64-4.13,1.8-5.91a6.674,6.674,0,0,1,2.77-2.19,26.046,26.046,0,0,0,3.55-2.22c.89-.61,2.02-1.25,2.99-.72a1.011,1.011,0,0,1,.58.72,1.55,1.55,0,0,1,0,.8,40.7,40.7,0,0,0-1.03,3.94,7.361,7.361,0,0,0,0,4.16c.72,1.89,3.36,2.61,5.13,3.02,2.55.64,5.24.36,7.82.94a20.1,20.1,0,0,1,6.66,3.47c3.19,2.25,6.13,4.77,9.21,7.15,1.55,1.22,3.13,2.41,4.8,3.49a43.578,43.578,0,0,0,6.88,2.77,60.9,60.9,0,0,0,8.1,2.77,24.89,24.89,0,0,0,11.09.53,4.988,4.988,0,0,1-1.25,3.94Z" fill="#ffb4a3"/><path d="M306.1,220.03a2.7,2.7,0,0,1-.97.53,5.166,5.166,0,0,1-3.38-.83,73.111,73.111,0,0,0-9.71-2.25c-3.55-1.11-7.02-2.44-10.48-3.8l-8.32-3.16c-2.77-1.11-5.55-2.16-8.32-3.55.75.39,2.77-4.16,3.16-4.63,2.27-2.61,2.11,2.19,2.33,3.77a2.194,2.194,0,0,0,.25.94,2.426,2.426,0,0,0,1.11.78q7.98,3.5,16.25,6.24c2.77.92,5.55,1.69,8.46,2.58,2.33.72,4.71.97,7.13,1.5.97.22,2.14.58,2.33,1.58a1.167,1.167,0,0,1,.17.31Z" fill="url(#f)"/><path d="M240.02,185.84a4.848,4.848,0,0,1-.22,2.77c-.58,1.14,4.6,1.64,5.85,0a56.332,56.332,0,0,0,3.36-6.21l-8.98,3.44Z" fill="url(#g)"/><path d="M245.95,185.23a8.543,8.543,0,0,1-4.91,1.19,5.55,5.55,0,0,1-4.33-2.47,8.367,8.367,0,0,1-.97-3.16,26.649,26.649,0,0,1,2.77-15.64,6.356,6.356,0,0,1,1.55-2.05,4.712,4.712,0,0,1,3.11-.67,9.791,9.791,0,0,1,5.55,2.5,28.231,28.231,0,0,1,4.41,4.6c.8,1.08,2.27,2.77,1.97,4.19a17.336,17.336,0,0,1-2.16,3.88,19.035,19.035,0,0,1-6.99,7.63Z" fill="#ffb4a3"/><path d="M314.39,214.54a.607.607,0,0,0,.36-.39c0-.33-.31-.55-.64-.67a17.43,17.43,0,0,0-3.36-.69c-.78,0-2.22,0-2.77.75s.25,1.28.89,1.55A7.921,7.921,0,0,0,314.39,214.54Z" fill="#ffb4a3"/><path d="M313.7,196.46c-3.47,2.16-7.02.53-10.43,3.27a20.628,20.628,0,0,1-5.55,3.99,11.105,11.105,0,0,1-4.24.53,22.834,22.834,0,0,1-15.67-7.21,23.378,23.378,0,0,0-2.77-2.77c-4.16-3.16-10.2-1.14-15.25-2.47a11.982,11.982,0,0,1-8.65-11.45,51.018,51.018,0,0,0,.36-5.8,9.5,9.5,0,0,0-.47-1.89,14.933,14.933,0,0,0-2.05-3.52,8.452,8.452,0,0,1,0,3.47,4.84,4.84,0,0,0,.69,3.36,5.9,5.9,0,0,1-2.97-3.77v-1.11a4.2,4.2,0,0,0-1.53-2.33c-1.08-.89-2.33-1.55-3.44-2.38a7.343,7.343,0,0,1-2.47-2.94,3.389,3.389,0,0,1-.28-1.83,7.678,7.678,0,0,1,3.74-5.55,11.146,11.146,0,0,1,8.85-.67,22.822,22.822,0,0,1,7.71,4.77,10.719,10.719,0,0,0,5.21,3.19,11.312,11.312,0,0,0,4.63-.83,16.931,16.931,0,0,1,7.96-.75,23.063,23.063,0,0,1,10.59,6.93,19.1,19.1,0,0,0,11.09,6.16,24.18,24.18,0,0,1,10.07,1.47,17.917,17.917,0,0,1,6.43,5.8,12.674,12.674,0,0,1,2.47,8.15,7.914,7.914,0,0,1-4.05,6.18Z" fill="#c14834"/><path d="M255.27,231.24a7.035,7.035,0,0,1-5.85,4.27c-4.85,1.19-10.04.75-14.81,2.41a42.468,42.468,0,0,1-4.35,1.55h-.44a5.3,5.3,0,0,1-4.77-1c-1.89-1.77-1.39-4.85-.78-7.35,1.14-4.55,3.8-10.04,1.03-14.42h0a12.543,12.543,0,0,1-1.08-1.33,6.737,6.737,0,0,1-.8-1.64l-1.33-3.52-2.77-7.07a3.267,3.267,0,0,1-.33-1.44,3.544,3.544,0,0,1,1.03-1.77l4.49-4.96a8.8,8.8,0,0,1,3.19-2.61,16.37,16.37,0,0,1,4.24-.47,22.48,22.48,0,0,0,5.27-1.8.756.756,0,0,1,1.09.64,5.4,5.4,0,0,0,1.44,2,10.349,10.349,0,0,0,1.39,1.08l.64.44,3.58,2.38a8.425,8.425,0,0,0,2.55,1.3c3.13.8,4.52-2.94,3.94-5.55a10.9,10.9,0,0,0-1.94-3.88c1.41.31,2.77.64,4.21,1.03a27.465,27.465,0,0,0,4.05,1.25c2.08.19,3.91-.61,5.96.28a36.792,36.792,0,0,1,7.43,4.33l-.92,3.24c-1.14,3.94-2.52,8.32-5.96,10.45-.89.55-1.86.97-2.77,1.58-1.47,1.05-1.41,2.36-1.89,3.88-.83,2.77-1.64,5.38-2.33,8.07a58.194,58.194,0,0,1-2.38,8.62Z" fill="#fff"/><path d="M254.44,194.72a2.493,2.493,0,0,1,.75-.8,1.977,1.977,0,0,1,.83-.19c3.63-.31,7.29-.53,10.93-.61-5.07-3.19-11.87-1.89-17.33-4.41-.44,1.3.47,2.77,1.03,3.91a10.758,10.758,0,0,1,.72,3.63,3.48,3.48,0,0,0,3.08-1.53Z" fill="url(#h)"/><path d="M185.25,209.33a3.76,3.76,0,0,1-2.41.17,7.162,7.162,0,0,1-1.22-1.72,4.615,4.615,0,0,0-1.5-1.89,3.916,3.916,0,0,0-2.97,0,3.636,3.636,0,0,1,1.69-.86,2.009,2.009,0,0,0,1.55-1.25,3.144,3.144,0,0,1,.17-.75c.22-.36.69-.39,1.11-.39a14.235,14.235,0,0,1,2.5.44,5.516,5.516,0,0,1,1.61.61,2.1,2.1,0,0,1,.94,1.19,4.21,4.21,0,0,1-.97-.28,8.125,8.125,0,0,0-1.11-.25,5.561,5.561,0,0,0-2.22.19s-.22,0-.25.17,0,.25.22.33c1.19.64,2.61.8,3.8,1.53a.917.917,0,0,1,.42.36.975.975,0,0,1,0,.75,2.483,2.483,0,0,1-1.36,1.64Z" fill="url(#i)"/><path d="M255.91,310.32c-.44-.89-.97-1.89-1.94-2.16a10.459,10.459,0,0,0-1.58-.17c-1.3-.25-2.11-1.5-2.77-2.58a22.385,22.385,0,0,0-2.33-3.55s-2.08,1.94-1.83,2.61a6.843,6.843,0,0,0,1.25,1.77,33.865,33.865,0,0,0,6.21,5.93c.72.44,2.99,2.02,3.88,1.61s-.58-2.72-.89-3.47Z" fill="#68e1fd"/><path d="M180.51,329.76a3.951,3.951,0,0,1-.92,2.11.868.868,0,0,1-1.33,0,15.759,15.759,0,0,1-3.97-4.05,8.631,8.631,0,0,1-1.36-5.55c.17-1.28.69-2.5.94-3.77s.22-2.27.53-3.38,1.97-1.77,3.05-2.14c.42.31-.53.94-.72,1.41a14.447,14.447,0,0,0-1.05,5.55,6.624,6.624,0,0,0,1.53,5.05,2.233,2.233,0,0,0,1.8.64c.53,0,1.11-1.03,1.58-.8s.03,4.19-.08,4.94Z" fill="#68e1fd"/><path d="M263.17,280.49l-11.09,20.66-.47-.31a1.378,1.378,0,0,1-.25-.17,11.417,11.417,0,0,1-1.86-1.75,1.058,1.058,0,0,1-.22-.42.616.616,0,0,1,0-.33c1.28-2.94,2.58-5.85,3.85-8.79a27.112,27.112,0,0,1,3.8-7.07c2.3-2.77,4.52-5.55,6.79-8.32a181.736,181.736,0,0,1-20.33-14.78l.36-1.11,1.55-3.11s21.3,14.86,22.18,16.31-4.33,9.18-4.33,9.18Z" fill="url(#j)"/><path d="M230.26,239.47h-.44a5.3,5.3,0,0,1-4.77-1c-1.89-1.77-1.39-4.85-.78-7.35,1.14-4.55,3.8-10.04,1.03-14.42h0a12.476,12.476,0,0,1,3.83-3.99,6.239,6.239,0,0,1,2.14-1.22c2.27-.55,5.1,1.53,6.82,0-.78,2.77-3.13,4.6-4.35,7.1a19.638,19.638,0,0,0-1.22,3.88c-.61,2.77-1.25,5.55-1.89,8.32a16.842,16.842,0,0,0-1.08,6.52,21.772,21.772,0,0,1,.72,2.16Z" fill="url(#k)"/><path d="M313.7,196.46c-3.47,2.16-7.02.53-10.43,3.27a20.628,20.628,0,0,1-5.55,3.99,11.105,11.105,0,0,1-4.24.53,22.834,22.834,0,0,1-15.67-7.21,23.378,23.378,0,0,0-2.77-2.77c-4.16-3.16-10.2-1.14-15.25-2.47a11.982,11.982,0,0,1-8.65-11.45,51.018,51.018,0,0,0,.36-5.8,9.5,9.5,0,0,0-.47-1.89c-.22-1.55-.19-2.19,1.3-.97a20.137,20.137,0,0,1,4.1,5.55,14.648,14.648,0,0,0,6.88,6.63c4.63,1.69,10.07-.67,14.56,1.33a21.493,21.493,0,0,1,6.1,4.96,9.622,9.622,0,0,0,6.77,3.55,3.637,3.637,0,0,0,2.77-1.28,23.575,23.575,0,0,1-9.87-9.26,20.545,20.545,0,0,0,18.58,6.24,10.734,10.734,0,0,1-3.83,3.05c4.44.14,9.37-.22,12.51-3.38.92-.92,1.86-2.14,3.16-2.02a2.962,2.962,0,0,1,1.8,1,9.421,9.421,0,0,1,1.69,2.36,7.962,7.962,0,0,1-3.85,6.05Z" fill="url(#l)"/><path d="M252.97,174.89a1.606,1.606,0,0,1,1.8,1.03,1.993,1.993,0,0,1-.39,1.58,6.359,6.359,0,0,1-2.77,2.44,1.529,1.529,0,0,1-.67.19,1.179,1.179,0,0,1-1.05-.97,2.372,2.372,0,0,1,.25-1.5C250.61,176.52,251.67,175.08,252.97,174.89Z" fill="#ffb4a3"/><path d="M252.63,176.72a1.357,1.357,0,0,1,.5-.42.467.467,0,0,1,.53,0v.39a3.088,3.088,0,0,1-2,2.61.75.75,0,0,1-.42,0c-.53-.17-.58-1.25-.19-1.58s.5-.14.75-.22A1.9,1.9,0,0,0,252.63,176.72Z" fill="url(#m)"/><path d="M245.29,197.35a11.487,11.487,0,0,1-5.24-2,16.343,16.343,0,0,0-3.19-2.08,6.2,6.2,0,0,0-4.08,0,20.211,20.211,0,0,0-8.32,6.57,8.414,8.414,0,0,0-1.83,2.77c-.61,1.69,1.14,7.15-.58,7.6l-2.77-7.07a3.267,3.267,0,0,1-.33-1.44,3.544,3.544,0,0,1,1.03-1.77l4.49-4.96a8.8,8.8,0,0,1,3.19-2.61,16.37,16.37,0,0,1,4.24-.47,22.48,22.48,0,0,0,5.27-1.8.756.756,0,0,1,1.09.64,5.4,5.4,0,0,0,1.44,2,10.349,10.349,0,0,0,1.39,1.08,19.883,19.883,0,0,0,4.21,3.55Z" fill="url(#n)"/><path d="M260.4,203.31a5.554,5.554,0,0,1,0-2.5,3.488,3.488,0,0,1,2.61-2,10.451,10.451,0,0,1,3.44,0c1.28,0,2.77.55,3.08,1.8a3.1,3.1,0,0,1-.31,1.72,24.741,24.741,0,0,1-2.22,4.99c-.69,1.05-4.66,5.1-6.29,3.94-.97-.69-.17-6.63-.31-7.96Z" fill="url(#o)"/><rect width="115.99" height="115.99" rx="12.59" transform="translate(65.95 134.51)" fill="#fff"/><circle cx="33.55" cy="33.55" r="33.55" transform="translate(85.74 219.224) rotate(-85.27)" fill="#68e1fd"/><path d="M121.91,149.02v40.99l36.05-26.04S141.57,145.64,121.91,149.02Z" fill="#473f47"/></g></g></svg>