<svg xmlns="http://www.w3.org/2000/svg" xmlns:xlink="http://www.w3.org/1999/xlink" width="500" height="380" viewBox="0 0 500 380"><defs><clipPath id="a"><rect width="500" height="380" transform="translate(4789 957)" fill="#fff" stroke="#707070" stroke-width="1" opacity="0.5"/></clipPath></defs><g transform="translate(-4789 -957)" clip-path="url(#a)"><g transform="translate(4812.064 914.102)"><path d="M472.67,254.99c-7.17-24.09-20.38-45.86-33.15-67.49-5.88-9.9-11.84-20.23-13.1-31.67-.93-8.5.77-17.1.16-25.6-1.72-24.31-22.51-44.11-45.77-51.41s-48.46-4.37-72.33.66-47.47,12.07-71.83,12.89c-17.53.59-34.95-2.04-52.27-4.74-21-3.29-42.45-6.58-63.36-2.89s-41.58,15.77-49.71,35.43c-10.12,24.44,1.32,52.88-4.93,78.59a82.066,82.066,0,0,1-9,21.42c-2.91,5.14-6.17,10.14-9.4,15.12-5.64,8.76-11.18,17.63-14.59,27.38-8.95,25.55-1.3,56.08,18.67,74.4,36.16,33.23,91.83,22,133.48,43.72,45.95,23.99,84.16,50.2,138.6,27.35,15.06-6.33,28.7-15.71,43.82-21.95,12.68-5.26,26.24-8.13,39.29-12.41l1.18-.41a148.706,148.706,0,0,0,18.75-7.73c17.1-8.55,32.22-20.71,41.2-37.33,11.98-22.08,11.45-49.22,4.3-73.32Z" transform="translate(-26.747 -12.534)" fill="#68e1fd" opacity="0.18" style="isolation:isolate"/><path d="M220.9,394.552,22.214,277.091c-6.325-3.524-11.746-9.4-5.6-13.192L216.024,148.969c2.982-1.9,7.5-3.072,10.571-1.265L435.133,268.779c6.325,3.7,7.5,13.915,1.084,17.619L247.106,394.281A26.119,26.119,0,0,1,220.9,394.552Z" transform="translate(0 -6.897)" fill="#4aa4e8"/><g transform="translate(160.004 75.3)"><path d="M367.027,275.6s.994,9.939.452,11.023a19.333,19.333,0,0,1-4.789,5.331c-1.9,1.536-4.427,4.066-1.717,5.421s10.843-4.969,11.656-5.331.9-11.2.9-11.2" transform="translate(-193.366 -94.621)" fill="#473e39"/><path d="M382.218,282s.994,9.939.452,11.023a22.872,22.872,0,0,1-4.879,5.331c-1.9,1.536-4.427,4.066-1.717,5.421s10.843-4.969,11.656-5.331.9-11.2.9-11.2" transform="translate(-194.823 -95.238)" fill="#473e39"/><path d="M388.344,234.025c.181,4.518.181,9.126-.09,13.915a1.359,1.359,0,0,0,.361.994c-.271,15.631-.542,38.039-.542,38.4,0,.542-4.879,3.343-8.222-1.807l-3.976-37.5-.361,34.515s-5.421,3.162-8.674-2.53L364.4,227.7Z" transform="translate(-193.811 -90)" fill="#e0d6cd"/><path d="M371.027,267.1s.994,9.939.452,11.023a25.132,25.132,0,0,1-4.789,5.421c-1.9,1.536-4.427,4.066-1.717,5.421s10.843-4.97,11.656-5.331.9-11.2.9-11.2" transform="translate(-193.752 -93.801)" fill="#473e39"/><path d="M379.494,272.338l2.259-42.105,1.626,39.575c1.988-1.355,3.976-2.62,5.873-4.066.994-5.331,2.078-10.662,3.072-15.993.271-8.493.994-17.077.181-25.57L368.2,219.3l2.44,52.315a12.748,12.748,0,0,0,6.144,2.53C377.687,273.513,378.591,272.97,379.494,272.338Z" transform="translate(-194.178 -89.19)" fill="#e0d6cd"/><path d="M294.405,305.9s-.994,9.939-.452,11.023a26.95,26.95,0,0,0,4.789,5.331c1.9,1.536,4.427,4.066,1.717,5.421s-10.842-4.97-11.656-5.331-.9-11.114-.9-11.114" transform="translate(-186.432 -97.543)" fill="#473e39"/><path d="M279.305,312.2s-.994,9.939-.452,11.023a25.135,25.135,0,0,0,4.789,5.421c1.9,1.536,4.427,4.066,1.717,5.421s-10.842-4.969-11.656-5.331-.9-11.114-.9-11.114" transform="translate(-184.976 -98.151)" fill="#473e39"/><path d="M271.695,266.674a101.328,101.328,0,0,0,.452,11.565,1.359,1.359,0,0,1-.361.994c.271,15.631.542,38.039.542,38.4,0,.542,4.879,3.343,8.222-1.807l1.988-46.8,2.349,43.822a12.265,12.265,0,0,0,8.764-2.53L296.09,258Z" transform="translate(-184.864 -92.923)" fill="#e0d6cd"/><path d="M219.4,367.186l44.364,25.932L398.3,311.167,354.208,286.5" transform="translate(-179.825 -95.672)" fill="rgba(0,0,0,0)" opacity="0.63"/><path d="M250.515,341.9s-.994,9.939-.452,11.023a24.64,24.64,0,0,0,4.789,5.331c1.9,1.536,4.427,4.066,1.717,5.512s-10.842-4.97-11.656-5.331-.813-11.114-.813-11.114" transform="translate(-182.207 -101.016)" fill="#473e39"/><path d="M235.305,348.3s-.994,9.939-.452,11.023a25.132,25.132,0,0,0,4.789,5.421c1.9,1.536,4.427,4.066,1.717,5.421s-10.843-4.969-11.656-5.331-.9-11.114-.9-11.114" transform="translate(-180.732 -101.633)" fill="#473e39"/><path d="M228.171,300.325c-.181,4.518-.181,9.126.09,13.915a1.359,1.359,0,0,1-.361.994c.271,15.631.542,38.039.542,38.4,0,.542,4.879,3.343,8.222-1.807l1.988-46.8L241,348.845a12.265,12.265,0,0,0,8.764-2.53L252.205,294Z" transform="translate(-180.645 -96.395)" fill="#e0d6cd"/><path d="M177.678,184.2h2.62a2.045,2.045,0,0,1,2.078,2.078v46.713a2.045,2.045,0,0,1-2.078,2.078h-2.62a2.045,2.045,0,0,1-2.078-2.078V186.278A2.045,2.045,0,0,1,177.678,184.2Z" transform="translate(-175.6 -85.804)" fill="#473e39"/><path d="M220.578,320.1h2.62a2.045,2.045,0,0,1,2.078,2.078v46.713a2.045,2.045,0,0,1-2.078,2.078h-2.62a2.045,2.045,0,0,1-2.078-2.078V322.178A2.043,2.043,0,0,1,220.578,320.1Z" transform="translate(-179.737 -98.913)" fill="#473e39"/><path d="M265.578,344.9h2.62a2.045,2.045,0,0,1,2.078,2.078v49.6a2.045,2.045,0,0,1-2.078,2.078h-2.62a2.045,2.045,0,0,1-2.078-2.078v-49.6A2.1,2.1,0,0,1,265.578,344.9Z" transform="translate(-184.079 -101.305)" fill="#473e39"/><path d="M413.078,257.3h2.62a2.045,2.045,0,0,1,2.078,2.078v49.6a2.045,2.045,0,0,1-2.078,2.078h-2.62A2.045,2.045,0,0,1,411,308.983v-49.6A2.045,2.045,0,0,1,413.078,257.3Z" transform="translate(-198.306 -92.855)" fill="#473e39"/><path d="M419.653,258.2v4.879l-2.349,1.807-.9-5.512Z" transform="translate(-198.827 -92.942)" fill="#68e1fd"/><path d="M419.653,258.2v4.879l-2.349,1.807-.9-5.512Z" transform="translate(-198.827 -92.942)" fill="#3a3935" opacity="0.61"/><path d="M394.828,249.716,222.161,148.7c-15.27,10.391-30.811,20.51-46.261,30.63v5.783l119.629,67.224a3.122,3.122,0,0,1,1.175,4.337,2.937,2.937,0,0,1-1.175,1.175l-79.15,46.442-2.349-1.355v6.415h.09a4.526,4.526,0,0,0,2.349,3.072l39.214,19.968a6.624,6.624,0,0,0,6.234-.181L394.828,255.5A3.143,3.143,0,0,0,396,251.162,2.417,2.417,0,0,0,394.828,249.716Z" transform="translate(-175.629 -82.38)" fill="#68e1fd"/><path d="M394.828,249.716,222.161,148.7c-15.27,10.391-30.811,20.51-46.261,30.63v5.783l119.629,67.224a3.122,3.122,0,0,1,1.175,4.337,2.937,2.937,0,0,1-1.175,1.175l-79.15,46.442-2.349-1.355v6.415h.09a4.526,4.526,0,0,0,2.349,3.072l39.214,19.968a6.624,6.624,0,0,0,6.234-.181L394.828,255.5A3.143,3.143,0,0,0,396,251.162,2.417,2.417,0,0,0,394.828,249.716Z" transform="translate(-175.629 -82.38)" fill="#3a3935" opacity="0.61"/><path d="M394.828,244.726,228.034,147.143a3.878,3.878,0,0,0-4.066.09c-15.9,10.843-31.985,21.414-48.068,31.9v.9l119.629,67.224a3.122,3.122,0,0,1,1.175,4.337,2.937,2.937,0,0,1-1.175,1.175L216.2,299.3a4.458,4.458,0,0,0-1.626,6.144,5.217,5.217,0,0,0,1.9,1.807l39.214,19.968a6.624,6.624,0,0,0,6.234-.181l132.911-76.711A3.143,3.143,0,0,0,396,245.991,2.664,2.664,0,0,0,394.828,244.726Z" transform="translate(-175.629 -82.179)" fill="#68e1fd"/><path d="M295.343,178.975V93.5l-13.372,3.976L281.7,171.2C286.218,173.915,290.826,176.264,295.343,178.975Z" transform="translate(-185.834 -77.056)" fill="#eda421"/><path d="M296.366,178.975V93.5L292.3,94.675v81.951C293.655,177.349,295.011,178.162,296.366,178.975Z" transform="translate(-186.857 -77.056)" fill="#754c24"/><path d="M191.9,123.911l17.438,8.855,81.59-47.888L273.038,75.3Z" transform="translate(-177.172 -75.3)" fill="#eda421"/><path d="M211.2,139.57,293.061,91.5V85.9L211.2,133.788Z" transform="translate(-179.034 -76.322)" fill="#754c24"/><path d="M196.461,134.7,196.1,242.4l9.578,5.241,4.066-2.44V138.495Z" transform="translate(-177.577 -81.03)" fill="#eda421"/><path d="M206.7,248.048V138.9l4.066,2.169v104.54Z" transform="translate(-178.6 -81.435)" fill="#754c24"/><circle cx="3.976" cy="3.976" r="3.976" transform="translate(25.57 41.744)" fill="#e05342"/><path d="M203.972,126.7s.361,2.078,3.976,2.168c3.795.09,3.885-1.807,3.885-1.807a3.433,3.433,0,0,1,.181,1.9c-.271.994-1.355,2.078-3.976,2.078a4.878,4.878,0,0,1-3.976-1.807A2.781,2.781,0,0,1,203.972,126.7Z" transform="translate(-178.312 -80.258)" fill="#3a3935"/><circle cx="7.228" cy="7.228" r="7.228" transform="translate(58.55 11.836)" fill="#e05342"/><path d="M240.444,97.9c0,.09.633,3.7,7.138,3.885,6.777.181,6.957-3.253,6.957-3.253a5.57,5.57,0,0,1,.271,3.433c-.452,1.717-2.44,3.7-7.228,3.7a8.489,8.489,0,0,1-7.138-3.343C239.27,100.52,240.444,97.9,240.444,97.9Z" transform="translate(-181.804 -77.48)" fill="#3a3935"/><path d="M191.9,129.1v6.144l17.438,8.493v-5.783Z" transform="translate(-177.172 -80.489)" fill="#754c24"/><circle cx="3.976" cy="3.976" r="3.976" transform="translate(90.806 5.06)" fill="#e05342"/><path d="M276.072,86.1s.361,2.078,3.976,2.169c3.795.09,3.885-1.807,3.885-1.807a3.433,3.433,0,0,1,.181,1.9c-.271.994-1.355,2.078-3.976,2.078a4.878,4.878,0,0,1-3.976-1.807A2.781,2.781,0,0,1,276.072,86.1Z" transform="translate(-185.266 -76.342)" fill="#3a3935"/><path d="M354.854,227,338.5,236.578l14.186,8.313,16.354-8.764C364.341,232.963,359.643,229.982,354.854,227Z" transform="translate(-191.313 -89.933)" fill="rgba(0,0,0,0)" opacity="0.63"/><path d="M356.646,212.065v17.8l-13.914,7.951L327.1,228.509V210.8" transform="translate(-190.213 -88.37)" fill="#eda421"/><path d="M356.646,212.065v17.8l-13.914,7.951L327.1,228.509V210.8" transform="translate(-190.213 -88.37)" fill="#3a3935" opacity="0.5"/><path d="M356.646,211.226,340.563,202.1,327.1,209.961l15.631,9.216Z" transform="translate(-190.213 -87.531)" fill="#eda421"/><path d="M342.731,220.016v17.8L327.1,228.509V210.8Z" transform="translate(-190.213 -88.37)" fill="#eda421"/><path d="M342.731,220.016v17.8L327.1,228.509V210.8Z" transform="translate(-190.213 -88.37)" fill="#3a3935" opacity="0.2"/><path d="M352.126,214.126,336.043,205l-3.343,1.988,15.9,9.126v10.933l3.524-1.807Z" transform="translate(-190.754 -87.811)" fill="#754c24"/><path d="M288.107,304.3,268.5,315.775l16.987,9.939,19.607-10.481C299.4,311.528,293.8,307.914,288.107,304.3Z" transform="translate(-184.561 -97.389)" fill="rgba(0,0,0,0)" opacity="0.63"/><path d="M259.4,288.836v20.6l16.083,9.216L293.554,307.9V287.3" transform="translate(-183.683 -95.749)" fill="#eda421"/><path d="M259.4,288.836v20.6l16.083,9.216L293.554,307.9V287.3" transform="translate(-183.683 -95.749)" fill="#3a3935" opacity="0.5"/><path d="M259.4,287.871,278.013,277.3l15.541,9.035-18.071,10.752Z" transform="translate(-183.683 -94.785)" fill="#eda421"/><path d="M277.2,298.052v20.6L295.271,307.9V287.3Z" transform="translate(-185.4 -95.749)" fill="#eda421"/><path d="M277.2,298.052v20.6L295.271,307.9V287.3Z" transform="translate(-185.4 -95.749)" fill="#3a3935" opacity="0.2"/><path d="M265.8,291.271,284.413,280.7l3.976,2.259L269.866,293.53v12.65l-4.066-2.168Z" transform="translate(-184.301 -95.112)" fill="#754c24"/><path d="M331.007,276.6,311.4,288.075l16.987,9.939L347.9,287.533C342.3,283.828,336.7,280.124,331.007,276.6Z" transform="translate(-188.699 -94.717)" fill="rgba(0,0,0,0)" opacity="0.63"/><path d="M302.3,261.136v20.6l16.083,9.126L336.544,280.2V259.6" transform="translate(-187.821 -93.077)" fill="#eda421"/><path d="M302.3,261.136v20.6l16.083,9.126L336.544,280.2V259.6" transform="translate(-187.821 -93.077)" fill="#3a3935" opacity="0.5"/><path d="M302.3,260.162,320.913,249.5l15.631,9.126-18.161,10.662Z" transform="translate(-187.821 -92.103)" fill="#eda421"/><path d="M320.1,270.262v20.6L338.261,280.2V259.6Z" transform="translate(-189.538 -93.077)" fill="#eda421"/><path d="M320.1,270.262v20.6L338.261,280.2V259.6Z" transform="translate(-189.538 -93.077)" fill="#3a3935" opacity="0.2"/><path d="M308.8,263.471,327.413,252.9l3.885,2.349-18.523,10.571v12.65L308.8,276.3Z" transform="translate(-188.448 -92.431)" fill="#754c24"/><path d="M305.663,220.6s5.15,10.752,7.048,13.011,9.216,12.288,9.216,12.288,3.7,2.711,2.891,3.524-3.433-1.9-3.433-1.9l-5.15.271s-8.042-9.849-9.849-11.927-6.686-11.746-6.686-11.746" transform="translate(-187.57 -89.315)" fill="#ffc8a9"/><path d="M274.411,245.7v.271a101.514,101.514,0,0,0-2.711,19.516c8.584,3.253,18.884-.994,25.841-7.951Z" transform="translate(-184.87 -91.736)" fill="#e0d6cd"/><path d="M283.658,205.729s-9.035,2.168-11.114,9.216,2.711,32.8,2.711,32.8,14.547,5.512,24.215-3.885c0,0,0-36.051-5.421-38.943C289.983,202.747,283.658,205.729,283.658,205.729Z" transform="translate(-184.901 -87.726)" fill="#a2c609"/><path d="M295.7,204.7s7.68,2.62,10.933,15.722a67.68,67.68,0,0,1-7.319,4.066" transform="translate(-187.185 -87.782)" fill="#a2c609"/><path d="M298.944,221.442l-2.62-2.168c0-11.836-7.138-16.173-7.138-16.173l-.723.633c5.331,5.331,6.325,14.818,5.873,15.18s-8.222,2.349-8.222,2.349a26.9,26.9,0,0,0-.633-4.608,20.785,20.785,0,0,0-1.265-3.795,17.732,17.732,0,0,0-1.536-2.891,15.982,15.982,0,0,0-1.446-1.988,1.8,1.8,0,0,0-.9-.723.814.814,0,0,0-.452-.09,21.629,21.629,0,0,0-1.9,1.175c4.427.361,6.234,13.372,6.234,13.372s-2.259.181-1.446,6.415S275,245.3,275,245.3l2.349,29.184,21.775-12.74Z" transform="translate(-185.188 -87.627)" fill="#473e39"/><path d="M280.9,235.452,274.3,224.7l.271,3.162a.315.315,0,0,1,.09.181c.633,3.253,1.355,9.668,1.536,10.571l1.084,5.421,4.156-5.963Z" transform="translate(-185.12 -89.711)" fill="#3a3935"/><path d="M284.032,228.318s2.62,7.409,4.608,9.487,12.288,12.65,12.65,12.74,6.505,1.084,6.234,2.349-3.976.632-3.976.632,5.783,4.608,4.608,6.144-9.668-2.078-10.3-3.795-1.626-4.247-1.626-4.247-14-9.758-15.451-11.656-4.879-10.21-4.879-10.21A6.96,6.96,0,0,1,284.032,228.318Z" transform="translate(-185.275 -89.986)" fill="#ffc8a9"/><path d="M273.1,225.118s3.7,9.035,3.885,9.216,8.132-3.343,9.035-3.524l-4.156-10.21" transform="translate(-185.005 -89.315)" fill="#a2c609"/><path d="M286.9,208.428a6.165,6.165,0,0,0,3.614-.09v-6.054L283.2,201.2l.452,5.6A7.9,7.9,0,0,0,286.9,208.428Z" transform="translate(-185.979 -87.444)" fill="#ffc8a9"/><path d="M286.9,208.428a6.165,6.165,0,0,0,3.614-.09v-6.054L283.2,201.2l.452,5.6A7.9,7.9,0,0,0,286.9,208.428Z" transform="translate(-185.979 -87.444)" fill="#3a3935" opacity="0.3"/><path d="M294.375,192.695c.271.271-1.175,12.74-3.885,12.559s-7.59-3.614-7.59-8.493S291.032,188.448,294.375,192.695Z" transform="translate(-185.95 -86.438)" fill="#ffc8a9"/><path d="M290.01,186.69c-7.138-.813-10.3,3.976-10.21,7.228s.994,8.4,2.711,8.493a2.127,2.127,0,0,0,.723-.181,12.353,12.353,0,0,1,.813-3.614c-.452-.813-1.175-2.259-.181-2.891a.873.873,0,0,1,1.265.09c.09.09.09.09.09.181a1.849,1.849,0,0,1,1.807-1.626s6.506,1.536,8.313.452S297.057,187.5,290.01,186.69Z" transform="translate(-185.651 -86.036)" fill="#473e39"/><path d="M286.738,182.6c-4.337.361-8.493,2.62-9.578,6.957s.361,5.963,2.62,6.6c0,0,7.048-8.042,15.451-5.692.632.181.723-2.349.723-2.711a3.951,3.951,0,0,0-2.44-4.066A14.673,14.673,0,0,0,286.738,182.6Z" transform="translate(-185.361 -85.645)" fill="#e0d6cd"/><path d="M279.913,196.839l-.813-.271s6.144-9.126,16.716-6.325l-.271.994a14.781,14.781,0,0,0-9.035.723A21.589,21.589,0,0,0,279.913,196.839Z" transform="translate(-185.583 -86.336)" fill="#3a3935"/><path d="M262.163,254.4s5.06,10.752,7.048,13.011,9.216,12.288,9.216,12.288,3.7,2.711,2.891,3.524-3.433-1.9-3.433-1.9l-5.15.271s-8.042-9.849-9.849-11.927-6.686-11.746-6.686-11.746" transform="translate(-183.374 -92.576)" fill="#ffc8a9"/><path d="M230.911,279.5v.271a101.522,101.522,0,0,0-2.711,19.516c8.584,3.253,18.884-.994,25.841-7.951Z" transform="translate(-180.674 -94.997)" fill="#e0d6cd"/><path d="M240.058,239.533s-9.035,2.168-11.114,9.306,2.711,32.8,2.711,32.8,14.547,5.512,24.215-3.885c0,0,0-36.051-5.421-38.943C246.473,236.551,240.058,239.533,240.058,239.533Z" transform="translate(-180.695 -90.99)" fill="#a2c609"/><path d="M252.1,238.6s7.68,2.62,10.933,15.722a67.678,67.678,0,0,1-7.319,4.066" transform="translate(-182.979 -91.052)" fill="#a2c609"/><path d="M255.343,255.242l-2.62-2.169c0-11.836-7.138-16.173-7.138-16.173l-.723.632c5.331,5.331,6.325,14.818,5.873,15.18s-8.222,2.349-8.222,2.349a20.378,20.378,0,0,0-.723-4.608,20.785,20.785,0,0,0-1.265-3.795,17.727,17.727,0,0,0-1.536-2.891,15.976,15.976,0,0,0-1.446-1.988,2.056,2.056,0,0,0-.813-.723.815.815,0,0,0-.452-.09,21.6,21.6,0,0,0-1.9,1.175c4.427.361,6.234,13.372,6.234,13.372s-2.259.181-1.446,6.415S231.4,279.1,231.4,279.1v23.131c-.542.633,24.576-14.457,24.576-14.457Z" transform="translate(-180.981 -90.888)" fill="#473e39"/><path d="M237.4,269.252,230.8,258.5l.271,3.162c0,.09,0,.09.09.181.632,3.253,1.355,9.668,1.536,10.572l1.084,5.421,4.156-5.963Z" transform="translate(-180.924 -92.971)" fill="#3a3935"/><path d="M240.413,262.121s2.62,7.409,4.608,9.487,12.288,12.65,12.65,12.74,6.506,1.084,6.144,2.259-3.976.633-3.976.633,5.783,4.608,4.608,6.144-9.668-2.078-10.3-3.795-1.717-4.247-1.717-4.247-14-9.758-15.451-11.656-4.879-10.21-4.879-10.21A7.506,7.506,0,0,1,240.413,262.121Z" transform="translate(-181.05 -93.249)" fill="#ffc8a9"/><path d="M229.6,258.918s3.7,9.035,3.885,9.216,8.132-3.343,9.035-3.524l-4.156-10.21" transform="translate(-180.809 -92.576)" fill="#a2c609"/><path d="M243.414,242.328a6.486,6.486,0,0,0,3.7-.09v-6.054L239.8,235.1l.452,5.6A9.547,9.547,0,0,0,243.414,242.328Z" transform="translate(-181.793 -90.714)" fill="#ffc8a9"/><path d="M243.414,242.328a6.486,6.486,0,0,0,3.7-.09v-6.054L239.8,235.1l.452,5.6A9.547,9.547,0,0,0,243.414,242.328Z" transform="translate(-181.793 -90.714)" fill="#3a3935" opacity="0.3"/><path d="M250.875,226.495c.271.271-1.175,12.74-3.885,12.559s-7.59-3.614-7.59-8.493S247.532,222.248,250.875,226.495Z" transform="translate(-181.754 -89.699)" fill="#ffc8a9"/><path d="M246.41,220.49c-7.138-.813-10.3,3.976-10.21,7.228s.994,8.4,2.711,8.493a2.127,2.127,0,0,0,.723-.181,12.354,12.354,0,0,1,.813-3.614c-.452-.813-1.175-2.259-.181-2.891a.96.96,0,0,1,1.265.09c0,.09.09.09.09.181a1.849,1.849,0,0,1,1.807-1.626s6.505,1.536,8.313.452S253.548,221.3,246.41,220.49Z" transform="translate(-181.445 -89.296)" fill="#eda421"/><path d="M243.138,216.4c-4.337.361-8.493,2.62-9.578,6.957s.361,5.963,2.62,6.6c0,0,7.048-8.042,15.451-5.692.632.181.723-2.349.723-2.711a3.951,3.951,0,0,0-2.44-4.066A14.489,14.489,0,0,0,243.138,216.4Z" transform="translate(-181.155 -88.905)" fill="#e0d6cd"/><path d="M236.413,230.639l-.813-.271s6.144-9.126,16.716-6.325l-.271.994a14.781,14.781,0,0,0-9.035.723A23.169,23.169,0,0,0,236.413,230.639Z" transform="translate(-181.387 -89.596)" fill="#3a3935"/><path d="M385.482,158.5s.9,2.891,4.608,7.77,6.415,6.234,5.421,10.752-10.029-.181-14.547-.542-5.421-7.319-4.879-10.662" transform="translate(-194.925 -83.325)" fill="#473e39"/><path d="M358.143,181.5s-5.06,10.752-7.048,13.011-9.216,12.288-9.216,12.288-3.7,2.711-2.891,3.524,3.433-1.9,3.433-1.9l5.15.271s8.042-9.849,9.849-11.927,6.686-11.746,6.686-11.746" transform="translate(-191.349 -85.544)" fill="#ffc8a9"/><path d="M366.2,218.417,389.511,206.4a181.767,181.767,0,0,1,2.982,19.7C383.909,229.8,373.248,225.465,366.2,218.417Z" transform="translate(-193.985 -87.946)" fill="#e0d6cd"/><path d="M380.012,166.633s9.035,2.168,11.114,9.216-2.711,32.8-2.711,32.8-14.547,5.512-24.215-3.885c0,0,0-36.051,5.421-38.943C373.6,163.742,380.012,166.633,380.012,166.633Z" transform="translate(-193.792 -83.959)" fill="#a2c609"/><path d="M369.633,165.6s-7.59,2.62-10.933,15.722a67.67,67.67,0,0,0,7.319,4.066" transform="translate(-193.261 -84.01)" fill="#a2c609"/><path d="M364.784,184.681l2.711-4.608c0-11.836,7.138-16.173,7.138-16.173l.723.632c-5.331,5.331-6.325,14.818-5.873,15.18s8.222,2.349,8.222,2.349a26.9,26.9,0,0,1,.632-4.608,20.783,20.783,0,0,1,1.265-3.795,17.728,17.728,0,0,1,1.536-2.891,15.979,15.979,0,0,1,1.446-1.988,1.8,1.8,0,0,1,.9-.723c.09,0,.361-.09.452-.09a21.609,21.609,0,0,1,1.9,1.175c-4.427.361-6.234,13.372-6.234,13.372s2.259.181,1.446,6.415,7.77,17.167,7.77,17.167L389.9,232.84l-26.2-14.818Z" transform="translate(-193.744 -83.846)" fill="#473e39"/><path d="M374.7,163.184h0c.181.271.361.452.361.723.452,1.9.813,3.795,1.175,5.692a5.894,5.894,0,0,0,2.169-.181,7.238,7.238,0,0,0,3.162-1.717l.452-5.6Z" transform="translate(-194.805 -83.673)" fill="#ffc8a9"/><path d="M374.7,163.184h0c.181.271.361.452.361.723.452,1.9.813,3.795,1.175,5.692a5.894,5.894,0,0,0,2.169-.181,7.238,7.238,0,0,0,3.162-1.717l.452-5.6Z" transform="translate(-194.805 -83.673)" fill="#3a3935" opacity="0.3"/><path d="M370.9,153.593c-.271.271,1.175,12.74,3.885,12.469s7.59-3.614,7.59-8.493S374.24,149.346,370.9,153.593Z" transform="translate(-194.435 -82.664)" fill="#ffc8a9"/><path d="M384.842,196.352l6.6-10.752-.271,3.162c0,.09-.09.09-.09.181-.632,3.253-1.355,9.668-1.536,10.571l-1.084,5.421-4.156-5.963Z" transform="translate(-195.731 -85.939)" fill="#3a3935"/><path d="M379.117,189.225s-2.62,7.409-4.608,9.487-12.288,12.65-12.65,12.74-6.506,1.084-6.144,2.349,3.976.633,3.976.633-5.783,4.608-4.608,6.234,9.668-2.078,10.3-3.795,1.626-4.247,1.626-4.247,14-9.758,15.451-11.656,4.879-10.12,4.879-10.12S383.725,186.966,379.117,189.225Z" transform="translate(-192.897 -86.221)" fill="#ffc8a9"/><path d="M392.021,186.018s-3.7,9.035-3.885,9.216S380,191.891,379.1,191.71l4.156-10.21" transform="translate(-195.229 -85.544)" fill="#a2c609"/><path d="M385.038,154.919c0-3.253-3.162-8.042-10.21-7.228a7.8,7.8,0,0,0-5.06,2.349c0,.542-.09.994-.09,1.536a.69.69,0,0,0-.181.452c0,1.265-.181,3.343.452,4.518a.469.469,0,0,0,.181.361c.813.994,2.259.813,3.434.723.9-.09,1.717-.271,2.62-.361,1.355-.271,2.711-.723,3.614,1.175a7.7,7.7,0,0,1,.271,2.078,6.477,6.477,0,0,0,1.355,3.795c.452.542,1.265-.271.813-.813l-.09-.09h.09C384.044,163.321,385.038,158.171,385.038,154.919Z" transform="translate(-194.301 -82.274)" fill="#473e39"/><path d="M376.884,145.2c4.337-.09,8.764,1.626,10.3,5.873s.271,5.963-1.807,6.867c0,0-7.861-7.228-15.993-3.976-.542.271-.994-2.349-.994-2.62a4.063,4.063,0,0,1,1.988-4.337A14.943,14.943,0,0,1,376.884,145.2Z" transform="translate(-194.188 -82.042)" fill="#e0d6cd"/><path d="M385.425,158.678l.723-.361S379.01,150,368.8,153.89l.452.994a14.338,14.338,0,0,1,9.126-.271A23.086,23.086,0,0,1,385.425,158.678Z" transform="translate(-194.236 -82.781)" fill="#3a3935"/></g><g transform="translate(34.954 163.941)"><path d="M65.752,302.673l44.816-25.389L82.377,261.2,37.2,286.409C46.778,291.74,56.265,297.251,65.752,302.673Z" transform="translate(-37.2 -181.872)" fill="rgba(0,0,0,0)" opacity="0.63"/><path d="M81.1,248.3v22.318h36.232V248.3" transform="translate(-41.434 -180.628)" fill="#e05342"/><ellipse cx="18.071" cy="8.945" rx="18.071" ry="8.945" transform="translate(39.756 58.727)" fill="#473e39"/><ellipse cx="18.071" cy="8.945" rx="18.071" ry="8.945" transform="translate(39.756 81.948)" fill="#e05342"/><path d="M121.744,190c-3.795-1.536-9.126-6.777-13.734-6.6-1.717,4.337-2.259,9.4-2.8,13.734a121.638,121.638,0,0,0-.542,22.95c.09,1.717.271,3.433.452,5.06a3.788,3.788,0,0,0,.361,1.446V244.3a.542.542,0,0,0,1.084,0V227.221a26.524,26.524,0,0,0,5.15-2.349,17.781,17.781,0,0,0,7.319-9.126c2.891-8.132,1.084-17.258,3.885-25.3C122.558,190.266,122.2,190.176,121.744,190Z" transform="translate(-43.678 -174.367)" fill="#754c24"/><path d="M114.148,175.659A13.3,13.3,0,0,0,109,180.99a5.022,5.022,0,0,0-.813,1.536l-.181.361h0c-.361.9-.632,1.9-.9,2.8a3.542,3.542,0,0,1,1.9-1.536,4.285,4.285,0,0,1,2.982-.271,16.431,16.431,0,0,1,2.8,1.446l3.795,2.44c5.963,3.795,14,4.156,18.613-1.355.09-.181.09-.452.181-.632C138.182,182.074,127.43,167.979,114.148,175.659Z" transform="translate(-43.942 -173.404)" fill="#a2c609"/><path d="M135.025,189.262l.723-.542a.5.5,0,0,0-.181-.452c-3.614-3.7-7.5-7.409-12.469-9.216a21.2,21.2,0,0,0-11.114-1.084c-.361.452-.723.994-1.084,1.446,4.066-1.355,9.126-.542,12.83,1.084,4.427,1.9,7.861,5.241,11.114,8.584A.194.194,0,0,0,135.025,189.262Z" transform="translate(-44.309 -173.815)" fill="#754c24"/><path d="M69.427,199.5A15.2,15.2,0,0,0,61.3,214.047c.452,10.662,18.071.271,22.679-8.764s5.421,3.795,5.421,3.795" transform="translate(-39.52 -175.921)" fill="#754c24"/><path d="M86.212,195.4a29.65,29.65,0,0,0-9.758,1.355A23.4,23.4,0,0,0,70.4,199.1a21.852,21.852,0,0,0,3.524,1.9c2.169.9,4.518,1.988,5.692,4.066a12.8,12.8,0,0,1,.723,1.626c1.084,3.524.181,7.77,1.626,11.294,1.536,3.7,4.427,6.686,8.584,6.867,4.969.271,7.228-4.427,8.222-8.584s2.349-9.758.723-14C97.506,197.387,90.91,195.579,86.212,195.4Z" transform="translate(-40.402 -175.524)" fill="#a2c609"/><path d="M93.537,212.083c-2.078-6.777-6.505-13.1-12.921-16.083h-.271l-.271.09-1.175.271c7.5,2.8,12.288,10.21,14.186,17.8,2.44,9.668,1.626,20.239,1.626,30.088,0,.271.271.452.632.452a.427.427,0,0,0,.452-.452C95.706,233.678,96.7,222.383,93.537,212.083Z" transform="translate(-41.222 -175.583)" fill="#754c24"/></g></g></g></svg>