<svg xmlns="http://www.w3.org/2000/svg" xmlns:xlink="http://www.w3.org/1999/xlink" width="500" height="380" viewBox="0 0 500 380"><defs><clipPath id="a"><rect width="500" height="380" transform="translate(10937 3581)" fill="#fff" stroke="#707070" stroke-width="1" opacity="0.2"/></clipPath></defs><g transform="translate(-10937 -3581)" clip-path="url(#a)"><g transform="translate(10937.22 3555.583)"><path d="M44.1,135.91c-13.47,49.31-11.57,113.05,58.09,160.36H397.87s61.85-19.48,64.42-90.76S441.42,37.3,358.78,43.72s-121.93,30-176.74,14.36q-1.71-.5-3.42-.93C119.98,41.79,60.09,77.45,44.11,135.92Z" fill="#e6e6e6" opacity="0.3"/><path d="M337.61,149.42s-28.93,25.53-18.69,79.97,4.12,95.35,4.12,95.35h31.51l4.66-81.02Z" fill="#ffd200"/><path d="M337.61,149.42s-28.93,25.53-18.69,79.97,4.12,95.35,4.12,95.35h31.51l4.66-81.02Z" fill="#fff" opacity="0.46"/><path d="M182.69,173.68l-22.9,37.3a43.57,43.57,0,0,0,7.05,54.32l20.58,19.64s4.09,20.26,11.87,21.08,2.87-27.1,2.87-27.1L182.69,173.69Z" fill="#f4a28c"/><path d="M102.19,146.62s17.36,1.51,25.96,12.26-7.37,100.44,7.78,133.16l-11.46,2.87S79.92,195.27,102.2,146.63Z" fill="#f2bf8c"/><rect width="65.12" height="50.22" transform="translate(91.1 273.74)" fill="#ffd200"/><path d="M214.88,142.86s-44.93,17-64.31,76.23l33.3,9.22Z" fill="#68e1fd"/><path d="M214.88,142.86s-44.93,17-64.31,76.23l33.3,9.22Z" fill="#fff" opacity="0.46"/><path d="M345.94,283.24l8.61,41.5h71.33l-4.25-41.5Z" fill="#24285b"/><rect width="427.91" height="131.85" transform="translate(32.78 324.74)" fill="#e6e6e6"/><rect width="427.91" height="16.32" transform="translate(32.78 324.74)" fill="#a5a5a5"/><path d="M215,95.95s-.52,10.75,1.56,17.81a5.413,5.413,0,0,0,6.75,3.64c3.54-1.1,8.01-3.61,8.98-9.34l2.85-9.52s1.58-6.03-4.65-10.15-15.5,1-15.49,7.56Z" fill="#f4a28c"/><path d="M234.62,100.27l6.88,34.6-19.33,2.42,2.75-26.14Z" fill="#f4a28c"/><path d="M217.68,96.3a42.93,42.93,0,0,0,9.88-1.14,8.966,8.966,0,0,0,.38,9.84,7.3,7.3,0,0,0,8.93,2.57l-.71-13.81a10.957,10.957,0,0,0-5.93-9.55,40.773,40.773,0,0,0-4.7-2.08c-4.04-1.44-9.76,1.44-13.43-1.11a2.6,2.6,0,0,0-4.05,1.86c-.46,4.23.55,10.81,6.32,12.89a10,10,0,0,0,3.3.53Z" fill="#ffd200"/><path d="M226.78,104.72s-.08-4.14,3.04-3.94,3.27,6.19-.93,6.91l-2.11-2.96Z" fill="#f4a28c"/><path d="M215.02,102.74,212.18,107a1.722,1.722,0,0,0,1.18,2.66l4.14.62-2.49-7.53Z" fill="#f4a28c"/><path d="M224.08,116.84a12.79,12.79,0,0,0,6.15-4s-.03,6.46-6.86,13.09l.71-9.1Z" fill="#ce8172" opacity="0.31"/><path d="M101.72,102.22s1.26,10.69-.33,17.87a5.411,5.411,0,0,1-6.48,4.1c-3.61-.85-8.24-3.05-9.61-8.69l-3.5-9.3s-1.99-5.9,3.94-10.45,15.53-.08,15.97,6.47Z" fill="#f2bf8c"/><path d="M82.43,107.88l-4.47,34.99,19.46,1.09-4.56-25.9Z" fill="#f2bf8c"/><path d="M102.16,109l3.12,4.05a1.73,1.73,0,0,1-.99,2.74l-4.09.9,1.96-7.69Z" fill="#f2bf8c"/><path d="M94.1,123.69a12.786,12.786,0,0,1-6.41-3.56s.47,6.44,7.75,12.59l-1.34-9.03Z" fill="#000001" opacity="0.03"/><path d="M352.04,96.62s-.52,10.75,1.56,17.81a5.413,5.413,0,0,0,6.75,3.64c3.54-1.1,8.01-3.61,8.98-9.34l2.85-9.52s1.58-6.03-4.65-10.15-15.5,1-15.49,7.56Z" fill="#9b6448"/><path d="M371.67,100.94l6.88,34.59-19.34,2.43,2.76-26.15Z" fill="#9b6448"/><path d="M352.07,103.41l-2.84,4.26a1.722,1.722,0,0,0,1.18,2.66l4.14.62-2.49-7.53Z" fill="#9b6448"/><path d="M361.12,117.51a12.79,12.79,0,0,0,6.15-4s-.03,6.46-6.86,13.09l.71-9.1Z" fill="#000001" opacity="0.03"/><path d="M222.17,137.29l19.34-2.43s48.27-5.12,61.75,40.73-14.6,107.64-14.6,107.64H196.54S130.99,166.6,222.18,137.29Z" fill="#68e1fd"/><path d="M358.28,137.29l19.34-2.43s48.27-5.12,61.75,40.73-14.6,107.64-14.6,107.64H345.95S287,158.84,358.29,137.29Z" fill="#ffd200"/><path d="M352.29,94.78h13.39l-1.85,8.16,4.29.47,4.93,4.43.69-14.46s.19-5.43-2.9-7.49-20.5-6.38-18.54,8.89Z" fill="#24285b"/><path d="M382.72,158.87s-20.95,25.44,11.26,50.09-10.94,74.27-10.94,74.27h38.6l33.61-52.89-15.97-46.4-53.37-25.08h-3.19Z" fill="#000001" opacity="0.08"/><path d="M196.52,283.24l-4.51,41.5H293.54l-8.19-42.06Z" fill="#24285b"/><path d="M363.8,104s-.08-4.14,3.04-3.94,3.27,6.19-.93,6.91l-2.11-2.96Z" fill="#9b6448"/><path d="M374.36,154.7c3.96-15.71,22.61-22.56,36.36-14,11.72,7.3,26.74,19.99,40.88,41.75,29.21,44.94,17.23,81.63-34.08,101.86l-11.23-13.86s38.57-30.6,15.73-62.67c-17.95-25.2-53.42-30.23-47.66-53.08Z" fill="#ffd200"/><path d="M80.96,114.38s9.31,3.62,13.64-8.62l11.69-1.28s-3.5-13.18-12.67-16.03S64.9,94.32,80.95,114.39Z" fill="#24285b"/><path d="M251.62,153.18s-23.58,16.56-8.85,51.7-1.27,78.35-1.27,78.35l43.85-.56,3.27-67.86-37.01-61.63Z" fill="#000001" opacity="0.08"/><path d="M374.36,154.7c3.96-15.71,22.61-22.56,36.36-14,11.72,7.3,26.74,19.99,40.88,41.75,29.21,44.94,17.23,81.63-34.08,101.86l-11.23-13.86s38.57-30.6,15.73-62.67c-17.95-25.2-53.42-30.23-47.66-53.08Z" fill="#fff" opacity="0.46"/><path d="M255.84,170.03c-4.58-18.55,17.36-31.8,32.04-19.57a48.8,48.8,0,0,1,15.75,24.39c9.9,33.98-10.09,149.89-10.09,149.89H271.43s5.32-62.97.41-96.29c-3.41-23.13-11.78-41.33-16-58.42Z" fill="#f4a28c"/><path d="M92.01,112.07s-.21-4.14-3.31-3.72-2.84,6.4,1.41,6.83l1.9-3.1Z" fill="#f2bf8c"/><circle cx="8.65" cy="8.65" r="8.65" transform="translate(61.12 85.07)" fill="#24285b"/><path d="M77.96,142.87l19.46,1.09s49.29,24.78,40.01,55.86-13.22,67.09-13.22,67.09H61.12s-59-101.25,16.84-124.03Z" fill="#68e1fd"/><path d="M69.72,145.73s-1.55-12.6,13.39-11.04,21.77,1.81,19.07,11.92c0,0-21.86,10.78-32.47-.88Z" fill="#68e1fd"/><path d="M48.73,199.81s6.56,48.51,32.75,67.09h42.73l3.81-25.87-21.73.64L48.73,199.81Z" fill="#000001" opacity="0.08"/><path d="M408.39,273.03s-15.13,10.45-9.12,17.55,18.26-6.28,18.26-6.28Z" fill="#9b6448"/><path d="M96.82,185.19c-7.01-19.56-34.3-22.14-43.97-3.75a22.725,22.725,0,0,0-2.59,8.92c-.99,13.26,17.91,41.2,32.92,61.11a29.941,29.941,0,0,0,40.81,6.66l44.72-30.57s16.37-.79,19.38-8.08-22.11-5.07-22.11-5.07L125.99,234.8a13.125,13.125,0,0,1-18.88-9.38c-2.05-11.36-5.37-26.51-10.29-40.23Z" fill="#f2bf8c"/><path d="M280.15,143.96s42.04,18.59,28.94,90.35H264.06s-4.98-32.75-12.52-58.95S261.45,135.08,280.15,143.96Z" fill="#68e1fd"/><path d="M280.15,143.96s42.04,18.59,28.94,90.35H264.06s-4.98-32.75-12.52-58.95S261.45,135.08,280.15,143.96Z" fill="#fff" opacity="0.46"/><path d="M61.12,266.9,48.73,324.74h89.86L124.21,266.9Z" fill="#24285b"/></g></g></svg>