<svg width="203" height="32" viewBox="0 0 203 32" fill="none" xmlns="http://www.w3.org/2000/svg">
<path d="M48.45 25.2C43.15 25.2 39.2 21.425 39.2 16.25C39.2 11.075 43.15 7.3 48.475 7.3C51.175 7.3 53.525 8.225 55.125 10.025L53.5 11.6C52.15 10.175 50.5 9.525 48.575 9.525C44.625 9.525 41.7 12.375 41.7 16.25C41.7 20.125 44.625 22.975 48.575 22.975C50.5 22.975 52.15 22.3 53.5 20.875L55.125 22.45C53.525 24.25 51.175 25.2 48.45 25.2ZM63.4549 25.15C59.4799 25.15 56.5549 22.325 56.5549 18.375C56.5549 14.425 59.4799 11.625 63.4549 11.625C67.4299 11.625 70.3299 14.425 70.3299 18.375C70.3299 22.325 67.4299 25.15 63.4549 25.15ZM63.4549 23.05C66.0049 23.05 67.9049 21.2 67.9049 18.375C67.9049 15.55 66.0049 13.725 63.4549 13.725C60.9049 13.725 58.9799 15.55 58.9799 18.375C58.9799 21.2 60.9049 23.05 63.4549 23.05ZM79.324 25.15C75.349 25.15 72.424 22.325 72.424 18.375C72.424 14.425 75.349 11.625 79.324 11.625C83.299 11.625 86.199 14.425 86.199 18.375C86.199 22.325 83.299 25.15 79.324 25.15ZM79.324 23.05C81.874 23.05 83.774 21.2 83.774 18.375C83.774 15.55 81.874 13.725 79.324 13.725C76.774 13.725 74.849 15.55 74.849 18.375C74.849 21.2 76.774 23.05 79.324 23.05ZM99.9182 11.75H102.193V23.2C102.193 27.875 99.8182 30 95.3182 30C92.8932 30 90.4432 29.325 88.9932 28.025L90.1432 26.175C91.3682 27.225 93.2932 27.9 95.2432 27.9C98.3682 27.9 99.7932 26.45 99.7932 23.45V22.4C98.6432 23.775 96.9182 24.45 95.0182 24.45C91.1932 24.45 88.2932 21.85 88.2932 18.025C88.2932 14.2 91.1932 11.625 95.0182 11.625C96.9932 11.625 98.7932 12.35 99.9182 13.8V11.75ZM95.2932 22.35C97.9432 22.35 99.8432 20.575 99.8432 18.025C99.8432 15.45 97.9432 13.725 95.2932 13.725C92.6182 13.725 90.7182 15.45 90.7182 18.025C90.7182 20.575 92.6182 22.35 95.2932 22.35ZM109.629 22.825H119.829V25H107.129V7.5H119.479V9.675H109.629V15.05H118.404V17.175H109.629V22.825ZM134.409 25H131.684L127.859 19.925L123.984 25H121.309L126.534 18.225L121.559 11.75H124.234L127.884 16.525L131.509 11.75H134.134L129.134 18.225L134.409 25ZM144.053 11.625C147.928 11.625 150.753 14.325 150.753 18.375C150.753 22.45 147.928 25.15 144.053 25.15C142.178 25.15 140.528 24.425 139.428 23V29.85H137.028V11.75H139.328V13.85C140.403 12.375 142.103 11.625 144.053 11.625ZM143.853 23.05C146.403 23.05 148.328 21.2 148.328 18.375C148.328 15.575 146.403 13.725 143.853 13.725C141.328 13.725 139.403 15.575 139.403 18.375C139.403 21.2 141.328 23.05 143.853 23.05ZM156.369 13.975C157.219 12.425 158.869 11.625 161.194 11.625V13.95C160.994 13.925 160.819 13.925 160.644 13.925C158.069 13.925 156.469 15.5 156.469 18.4V25H154.069V11.75H156.369V13.975ZM176.005 18.45C176.005 18.65 175.98 18.95 175.955 19.175H165.205C165.505 21.5 167.38 23.05 170.005 23.05C171.555 23.05 172.855 22.525 173.83 21.45L175.155 23C173.955 24.4 172.13 25.15 169.93 25.15C165.655 25.15 162.805 22.325 162.805 18.375C162.805 14.45 165.63 11.625 169.455 11.625C173.28 11.625 176.005 14.375 176.005 18.45ZM169.455 13.65C167.155 13.65 165.455 15.2 165.205 17.45H173.705C173.455 15.225 171.78 13.65 169.455 13.65ZM183.138 25.15C180.938 25.15 178.763 24.475 177.663 23.6L178.663 21.7C179.788 22.5 181.588 23.075 183.312 23.075C185.538 23.075 186.463 22.4 186.463 21.275C186.463 18.3 178.088 20.875 178.088 15.6C178.088 13.225 180.213 11.625 183.613 11.625C185.338 11.625 187.288 12.075 188.438 12.825L187.413 14.725C186.213 13.95 184.888 13.675 183.588 13.675C181.488 13.675 180.463 14.45 180.463 15.5C180.463 18.625 188.863 16.075 188.863 21.225C188.863 23.625 186.663 25.15 183.138 25.15ZM195.662 25.15C193.462 25.15 191.287 24.475 190.187 23.6L191.187 21.7C192.312 22.5 194.112 23.075 195.837 23.075C198.062 23.075 198.987 22.4 198.987 21.275C198.987 18.3 190.612 20.875 190.612 15.6C190.612 13.225 192.737 11.625 196.137 11.625C197.862 11.625 199.812 12.075 200.962 12.825L199.937 14.725C198.737 13.95 197.412 13.675 196.112 13.675C194.012 13.675 192.987 14.45 192.987 15.5C192.987 18.625 201.387 16.075 201.387 21.225C201.387 23.625 199.187 25.15 195.662 25.15Z" fill="white"/>
<path d="M0 24L2.4675e-06 8L7.77775 12.4444V19.5999L14 23.2L20.2222 19.5999V12.4444L28 8V24L14 31.9999L0 24Z" fill="#192657"/>
<path fill-rule="evenodd" clip-rule="evenodd" d="M3.88889 10.2222L2.4675e-06 8L14 0L28 8L24.1111 10.2222V21.9999L14 28L3.88888 21.9999L3.88889 10.2222ZM23.6898 10.463L20.2222 12.4444V12.4L14 8.79996L7.77775 12.4L7.77775 12.4444L4.31018 10.463V21.7538L14 27.5038L23.6898 21.7538V10.463Z" fill="url(#paint0_linear_67_27)"/>
<defs>
<linearGradient id="paint0_linear_67_27" x1="3.88888" y1="6.2222" x2="24.8889" y2="6.22221" gradientUnits="userSpaceOnUse">
<stop stop-color="#64C2DB"/>
<stop offset="0.307292" stop-color="#7476ED"/>
<stop offset="0.604167" stop-color="#C994DF"/>
<stop offset="1" stop-color="#E56F8C"/>
</linearGradient>
</defs>
</svg>
