<svg width="28" height="32" viewBox="0 0 28 32" fill="none" xmlns="http://www.w3.org/2000/svg">
<path d="M0 24L2.4675e-06 8L7.77775 12.4444V19.5999L14 23.2L20.2222 19.5999V12.4444L28 8V24L14 31.9999L0 24Z" fill="#192657"/>
<path fill-rule="evenodd" clip-rule="evenodd" d="M3.88889 10.2222L2.4675e-06 8L14 0L28 8L24.1111 10.2222V21.9999L14 28L3.88888 21.9999L3.88889 10.2222ZM23.6898 10.463L20.2222 12.4444V12.4L14 8.79996L7.77775 12.4L7.77775 12.4444L4.31018 10.463V21.7538L14 27.5038L23.6898 21.7538V10.463Z" fill="url(#paint0_linear_67_33)"/>
<defs>
<linearGradient id="paint0_linear_67_33" x1="3.88888" y1="6.2222" x2="24.8889" y2="6.22221" gradientUnits="userSpaceOnUse">
<stop stop-color="#64C2DB"/>
<stop offset="0.307292" stop-color="#7476ED"/>
<stop offset="0.604167" stop-color="#C994DF"/>
<stop offset="1" stop-color="#E56F8C"/>
</linearGradient>
</defs>
</svg>
