<svg width="205" height="32" viewBox="0 0 205 32" fill="none" xmlns="http://www.w3.org/2000/svg">
<path d="M50.45 25.2C45.15 25.2 41.2 21.425 41.2 16.25C41.2 11.075 45.15 7.3 50.475 7.3C53.175 7.3 55.525 8.225 57.125 10.025L55.5 11.6C54.15 10.175 52.5 9.525 50.575 9.525C46.625 9.525 43.7 12.375 43.7 16.25C43.7 20.125 46.625 22.975 50.575 22.975C52.5 22.975 54.15 22.3 55.5 20.875L57.125 22.45C55.525 24.25 53.175 25.2 50.45 25.2ZM65.4549 25.15C61.4799 25.15 58.5549 22.325 58.5549 18.375C58.5549 14.425 61.4799 11.625 65.4549 11.625C69.4299 11.625 72.3299 14.425 72.3299 18.375C72.3299 22.325 69.4299 25.15 65.4549 25.15ZM65.4549 23.05C68.0049 23.05 69.9049 21.2 69.9049 18.375C69.9049 15.55 68.0049 13.725 65.4549 13.725C62.9049 13.725 60.9799 15.55 60.9799 18.375C60.9799 21.2 62.9049 23.05 65.4549 23.05ZM81.324 25.15C77.349 25.15 74.424 22.325 74.424 18.375C74.424 14.425 77.349 11.625 81.324 11.625C85.299 11.625 88.199 14.425 88.199 18.375C88.199 22.325 85.299 25.15 81.324 25.15ZM81.324 23.05C83.874 23.05 85.774 21.2 85.774 18.375C85.774 15.55 83.874 13.725 81.324 13.725C78.774 13.725 76.849 15.55 76.849 18.375C76.849 21.2 78.774 23.05 81.324 23.05ZM101.918 11.75H104.193V23.2C104.193 27.875 101.818 30 97.3182 30C94.8932 30 92.4432 29.325 90.9932 28.025L92.1432 26.175C93.3682 27.225 95.2932 27.9 97.2432 27.9C100.368 27.9 101.793 26.45 101.793 23.45V22.4C100.643 23.775 98.9182 24.45 97.0182 24.45C93.1932 24.45 90.2932 21.85 90.2932 18.025C90.2932 14.2 93.1932 11.625 97.0182 11.625C98.9932 11.625 100.793 12.35 101.918 13.8V11.75ZM97.2932 22.35C99.9432 22.35 101.843 20.575 101.843 18.025C101.843 15.45 99.9432 13.725 97.2932 13.725C94.6182 13.725 92.7182 15.45 92.7182 18.025C92.7182 20.575 94.6182 22.35 97.2932 22.35ZM111.629 22.825H121.829V25H109.129V7.5H121.479V9.675H111.629V15.05H120.404V17.175H111.629V22.825ZM136.409 25H133.684L129.859 19.925L125.984 25H123.309L128.534 18.225L123.559 11.75H126.234L129.884 16.525L133.509 11.75H136.134L131.134 18.225L136.409 25ZM146.053 11.625C149.928 11.625 152.753 14.325 152.753 18.375C152.753 22.45 149.928 25.15 146.053 25.15C144.178 25.15 142.528 24.425 141.428 23V29.85H139.028V11.75H141.328V13.85C142.403 12.375 144.103 11.625 146.053 11.625ZM145.853 23.05C148.403 23.05 150.328 21.2 150.328 18.375C150.328 15.575 148.403 13.725 145.853 13.725C143.328 13.725 141.403 15.575 141.403 18.375C141.403 21.2 143.328 23.05 145.853 23.05ZM158.369 13.975C159.219 12.425 160.869 11.625 163.194 11.625V13.95C162.994 13.925 162.819 13.925 162.644 13.925C160.069 13.925 158.469 15.5 158.469 18.4V25H156.069V11.75H158.369V13.975ZM178.005 18.45C178.005 18.65 177.98 18.95 177.955 19.175H167.205C167.505 21.5 169.38 23.05 172.005 23.05C173.555 23.05 174.855 22.525 175.83 21.45L177.155 23C175.955 24.4 174.13 25.15 171.93 25.15C167.655 25.15 164.805 22.325 164.805 18.375C164.805 14.45 167.63 11.625 171.455 11.625C175.28 11.625 178.005 14.375 178.005 18.45ZM171.455 13.65C169.155 13.65 167.455 15.2 167.205 17.45H175.705C175.455 15.225 173.78 13.65 171.455 13.65ZM185.138 25.15C182.938 25.15 180.763 24.475 179.663 23.6L180.663 21.7C181.788 22.5 183.588 23.075 185.312 23.075C187.538 23.075 188.463 22.4 188.463 21.275C188.463 18.3 180.088 20.875 180.088 15.6C180.088 13.225 182.213 11.625 185.613 11.625C187.338 11.625 189.288 12.075 190.438 12.825L189.413 14.725C188.213 13.95 186.888 13.675 185.588 13.675C183.488 13.675 182.463 14.45 182.463 15.5C182.463 18.625 190.863 16.075 190.863 21.225C190.863 23.625 188.663 25.15 185.138 25.15ZM197.662 25.15C195.462 25.15 193.287 24.475 192.187 23.6L193.187 21.7C194.312 22.5 196.112 23.075 197.837 23.075C200.062 23.075 200.987 22.4 200.987 21.275C200.987 18.3 192.612 20.875 192.612 15.6C192.612 13.225 194.737 11.625 198.137 11.625C199.862 11.625 201.812 12.075 202.962 12.825L201.937 14.725C200.737 13.95 199.412 13.675 198.112 13.675C196.012 13.675 194.987 14.45 194.987 15.5C194.987 18.625 203.387 16.075 203.387 21.225C203.387 23.625 201.187 25.15 197.662 25.15Z" fill="white"/>
<path d="M5.89359 10.1651L16 4.33013L26.1064 10.1651V21.8349L16 27.6699L5.89359 21.8349V10.1651Z" stroke="white" stroke-width="7.5"/>
</svg>
