<svg width="151" height="63" viewBox="0 0 151 63" fill="none" xmlns="http://www.w3.org/2000/svg">
<path d="M9.62279 58.184C4.74679 58.184 1.11279 54.711 1.11279 49.95C1.11279 45.189 4.74679 41.716 9.64579 41.716C12.1298 41.716 14.2918 42.567 15.7638 44.223L14.2688 45.672C13.0268 44.361 11.5088 43.763 9.73779 43.763C6.10379 43.763 3.41279 46.385 3.41279 49.95C3.41279 53.515 6.10379 56.137 9.73779 56.137C11.5088 56.137 13.0268 55.516 14.2688 54.205L15.7638 55.654C14.2918 57.31 12.1298 58.184 9.62279 58.184ZM23.4273 58.138C19.7703 58.138 17.0793 55.539 17.0793 51.905C17.0793 48.271 19.7703 45.695 23.4273 45.695C27.0843 45.695 29.7523 48.271 29.7523 51.905C29.7523 55.539 27.0843 58.138 23.4273 58.138ZM23.4273 56.206C25.7733 56.206 27.5213 54.504 27.5213 51.905C27.5213 49.306 25.7733 47.627 23.4273 47.627C21.0813 47.627 19.3103 49.306 19.3103 51.905C19.3103 54.504 21.0813 56.206 23.4273 56.206ZM38.0269 58.138C34.3699 58.138 31.6789 55.539 31.6789 51.905C31.6789 48.271 34.3699 45.695 38.0269 45.695C41.6839 45.695 44.3519 48.271 44.3519 51.905C44.3519 55.539 41.6839 58.138 38.0269 58.138ZM38.0269 56.206C40.3729 56.206 42.1209 54.504 42.1209 51.905C42.1209 49.306 40.3729 47.627 38.0269 47.627C35.6809 47.627 33.9099 49.306 33.9099 51.905C33.9099 54.504 35.6809 56.206 38.0269 56.206ZM56.9735 45.81H59.0665V56.344C59.0665 60.645 56.8815 62.6 52.7415 62.6C50.5105 62.6 48.2565 61.979 46.9225 60.783L47.9805 59.081C49.1075 60.047 50.8785 60.668 52.6725 60.668C55.5475 60.668 56.8585 59.334 56.8585 56.574V55.608C55.8005 56.873 54.2135 57.494 52.4655 57.494C48.9465 57.494 46.2785 55.102 46.2785 51.583C46.2785 48.064 48.9465 45.695 52.4655 45.695C54.2825 45.695 55.9385 46.362 56.9735 47.696V45.81ZM52.7185 55.562C55.1565 55.562 56.9045 53.929 56.9045 51.583C56.9045 49.214 55.1565 47.627 52.7185 47.627C50.2575 47.627 48.5095 49.214 48.5095 51.583C48.5095 53.929 50.2575 55.562 52.7185 55.562ZM65.9074 55.999H75.2914V58H63.6074V41.9H74.9694V43.901H65.9074V48.846H73.9804V50.801H65.9074V55.999ZM88.7051 58H86.1981L82.6791 53.331L79.1141 58H76.6531L81.4601 51.767L76.8831 45.81H79.3441L82.7021 50.203L86.0371 45.81H88.4521L83.8521 51.767L88.7051 58ZM97.5775 45.695C101.142 45.695 103.741 48.179 103.741 51.905C103.741 55.654 101.142 58.138 97.5775 58.138C95.8525 58.138 94.3345 57.471 93.3225 56.16V62.462H91.1145V45.81H93.2305V47.742C94.2195 46.385 95.7835 45.695 97.5775 45.695ZM97.3935 56.206C99.7395 56.206 101.51 54.504 101.51 51.905C101.51 49.329 99.7395 47.627 97.3935 47.627C95.0705 47.627 93.2995 49.329 93.2995 51.905C93.2995 54.504 95.0705 56.206 97.3935 56.206ZM108.908 47.857C109.69 46.431 111.208 45.695 113.347 45.695V47.834C113.163 47.811 113.002 47.811 112.841 47.811C110.472 47.811 109 49.26 109 51.928V58H106.792V45.81H108.908V47.857ZM126.973 51.974C126.973 52.158 126.95 52.434 126.927 52.641H117.037C117.313 54.78 119.038 56.206 121.453 56.206C122.879 56.206 124.075 55.723 124.972 54.734L126.191 56.16C125.087 57.448 123.408 58.138 121.384 58.138C117.451 58.138 114.829 55.539 114.829 51.905C114.829 48.294 117.428 45.695 120.947 45.695C124.466 45.695 126.973 48.225 126.973 51.974ZM120.947 47.558C118.831 47.558 117.267 48.984 117.037 51.054H124.857C124.627 49.007 123.086 47.558 120.947 47.558ZM133.535 58.138C131.511 58.138 129.51 57.517 128.498 56.712L129.418 54.964C130.453 55.7 132.109 56.229 133.696 56.229C135.743 56.229 136.594 55.608 136.594 54.573C136.594 51.836 128.889 54.205 128.889 49.352C128.889 47.167 130.844 45.695 133.972 45.695C135.559 45.695 137.353 46.109 138.411 46.799L137.468 48.547C136.364 47.834 135.145 47.581 133.949 47.581C132.017 47.581 131.074 48.294 131.074 49.26C131.074 52.135 138.802 49.789 138.802 54.527C138.802 56.735 136.778 58.138 133.535 58.138ZM145.058 58.138C143.034 58.138 141.033 57.517 140.021 56.712L140.941 54.964C141.976 55.7 143.632 56.229 145.219 56.229C147.266 56.229 148.117 55.608 148.117 54.573C148.117 51.836 140.412 54.205 140.412 49.352C140.412 47.167 142.367 45.695 145.495 45.695C147.082 45.695 148.876 46.109 149.934 46.799L148.991 48.547C147.887 47.834 146.668 47.581 145.472 47.581C143.54 47.581 142.597 48.294 142.597 49.26C142.597 52.135 150.325 49.789 150.325 54.527C150.325 56.735 148.301 58.138 145.058 58.138Z" fill="black"/>
<path d="M65.8936 10.1651L76 4.33013L86.1064 10.1651V21.8349L76 27.6699L65.8936 21.8349V10.1651Z" stroke="black" stroke-width="7.5"/>
</svg>
